%TF.GenerationSoftware,KiCad,Pcbnew,5.99.0-unknown-r24460-8dd23acc*%
%TF.CreationDate,2021-01-20T14:34:24+01:00*%
%TF.ProjectId,led-pedestal,6c65642d-7065-4646-9573-74616c2e6b69,rev?*%
%TF.SameCoordinates,Original*%
%TF.FileFunction,Copper,L2,Bot*%
%TF.FilePolarity,Positive*%
%FSLAX46Y46*%
G04 Gerber Fmt 4.6, Leading zero omitted, Abs format (unit mm)*
G04 Created by KiCad (PCBNEW 5.99.0-unknown-r24460-8dd23acc) date 2021-01-20 14:34:24*
%MOMM*%
%LPD*%
G01*
G04 APERTURE LIST*
G04 Aperture macros list*
%AMRoundRect*
0 Rectangle with rounded corners*
0 $1 Rounding radius*
0 $2 $3 $4 $5 $6 $7 $8 $9 X,Y pos of 4 corners*
0 Add a 4 corners polygon primitive as box body*
4,1,4,$2,$3,$4,$5,$6,$7,$8,$9,$2,$3,0*
0 Add four circle primitives for the rounded corners*
1,1,$1+$1,$2,$3,0*
1,1,$1+$1,$4,$5,0*
1,1,$1+$1,$6,$7,0*
1,1,$1+$1,$8,$9,0*
0 Add four rect primitives between the rounded corners*
20,1,$1+$1,$2,$3,$4,$5,0*
20,1,$1+$1,$4,$5,$6,$7,0*
20,1,$1+$1,$6,$7,$8,$9,0*
20,1,$1+$1,$8,$9,$2,$3,0*%
%AMHorizOval*
0 Thick line with rounded ends*
0 $1 width*
0 $2 $3 position (X,Y) of the first rounded end (center of the circle)*
0 $4 $5 position (X,Y) of the second rounded end (center of the circle)*
0 Add line between two ends*
20,1,$1,$2,$3,$4,$5,0*
0 Add two circle primitives to create the rounded ends*
1,1,$1,$2,$3,0*
1,1,$1,$4,$5,0*%
G04 Aperture macros list end*
%TA.AperFunction,SMDPad,CuDef*%
%ADD10HorizOval,0.800000X-0.247487X-0.247487X0.247487X0.247487X0*%
%TD*%
%TA.AperFunction,ComponentPad*%
%ADD11R,1.800000X1.800000*%
%TD*%
%TA.AperFunction,ComponentPad*%
%ADD12C,1.800000*%
%TD*%
%TA.AperFunction,ComponentPad*%
%ADD13RoundRect,0.250000X-0.350000X-0.625000X0.350000X-0.625000X0.350000X0.625000X-0.350000X0.625000X0*%
%TD*%
%TA.AperFunction,ComponentPad*%
%ADD14O,1.200000X1.750000*%
%TD*%
%TA.AperFunction,SMDPad,CuDef*%
%ADD15R,1.000000X1.500000*%
%TD*%
%TA.AperFunction,ViaPad*%
%ADD16C,0.800000*%
%TD*%
%TA.AperFunction,Conductor*%
%ADD17C,0.250000*%
%TD*%
G04 APERTURE END LIST*
D10*
%TO.P,J2,5,Pin_5*%
%TO.N,VCC*%
X139391292Y-100611631D03*
%TO.P,J2,6,Pin_6*%
%TO.N,GND*%
X140289317Y-101509657D03*
%TO.P,J2,7,Pin_7*%
X141187343Y-102407683D03*
%TO.P,J2,8,Pin_8*%
%TO.N,/RST*%
X142085369Y-103305708D03*
%TD*%
D11*
%TO.P,D2,1,K*%
%TO.N,GND*%
X149225000Y-94743000D03*
D12*
%TO.P,D2,2,A*%
%TO.N,Net-(D2-Pad2)*%
X146685000Y-94743000D03*
%TD*%
D13*
%TO.P,BT1,1,Pin_1*%
%TO.N,Net-(BT1-Pad1)*%
X152400000Y-100584000D03*
D14*
%TO.P,BT1,2,Pin_2*%
%TO.N,+BATT*%
X154400000Y-100584000D03*
%TD*%
%TA.AperFunction,SMDPad,CuDef*%
%TO.P,JP1,1,A*%
%TO.N,GND*%
G36*
X147128800Y-105448800D02*
G01*
X146578800Y-105448800D01*
X146578800Y-105443833D01*
X146498859Y-105442368D01*
X146363544Y-105400093D01*
X146245534Y-105321538D01*
X146154314Y-105213019D01*
X146097219Y-105083260D01*
X146079636Y-104948800D01*
X146078800Y-104948800D01*
X146078800Y-104448800D01*
X146079636Y-104448800D01*
X146078837Y-104442691D01*
X146100648Y-104302614D01*
X146160896Y-104174289D01*
X146254740Y-104068031D01*
X146374635Y-103992383D01*
X146510942Y-103953426D01*
X146578800Y-103953841D01*
X146578800Y-103948800D01*
X147128800Y-103948800D01*
X147128800Y-105448800D01*
G37*
%TD.AperFunction*%
D15*
%TO.P,JP1,2,C*%
%TO.N,Net-(C3-Pad1)*%
X147878800Y-104698800D03*
%TA.AperFunction,SMDPad,CuDef*%
%TO.P,JP1,3,B*%
%TO.N,+BATT*%
G36*
X149178800Y-103953841D02*
G01*
X149252705Y-103954292D01*
X149388526Y-103994911D01*
X149507488Y-104072018D01*
X149600026Y-104179415D01*
X149658703Y-104308467D01*
X149678800Y-104448800D01*
X149678800Y-104948800D01*
X149678651Y-104961016D01*
X149655131Y-105100817D01*
X149593319Y-105228396D01*
X149498184Y-105333500D01*
X149377374Y-105407677D01*
X149240601Y-105444966D01*
X149178800Y-105443833D01*
X149178800Y-105448800D01*
X148628800Y-105448800D01*
X148628800Y-103948800D01*
X149178800Y-103948800D01*
X149178800Y-103953841D01*
G37*
%TD.AperFunction*%
%TD*%
D16*
%TO.N,+BATT*%
X142485000Y-92447000D03*
X156565600Y-88646000D03*
%TO.N,GND*%
X147218400Y-92202000D03*
X140300000Y-101500000D03*
X138379200Y-89001600D03*
X150368000Y-100838000D03*
X153568400Y-85902800D03*
X155803600Y-97790000D03*
X143764000Y-88138000D03*
X143764000Y-86995000D03*
X147912400Y-102912600D03*
X141200000Y-102400000D03*
X142658000Y-90678000D03*
X139141200Y-96418400D03*
X156260800Y-99923600D03*
X139496800Y-92354400D03*
%TO.N,/AN1|CLK*%
X138734800Y-99263200D03*
X141325600Y-96901000D03*
%TO.N,VCC*%
X140462000Y-87884000D03*
X148996400Y-96926400D03*
X145745200Y-98044000D03*
%TO.N,Net-(C3-Pad1)*%
X147878800Y-104394000D03*
%TO.N,/RST*%
X143510000Y-101854000D03*
%TO.N,/AN0|DAT*%
X141325600Y-98044000D03*
X140462000Y-89712800D03*
%TD*%
D17*
%TO.N,+BATT*%
X157480000Y-89560400D02*
X156565600Y-88646000D01*
X157480000Y-97504000D02*
X157480000Y-89560400D01*
X144424400Y-96164400D02*
X152755600Y-96164400D01*
X154400000Y-100584000D02*
X150285200Y-104698800D01*
X154400000Y-100584000D02*
X157480000Y-97504000D01*
X142485000Y-94225000D02*
X144424400Y-96164400D01*
X154400000Y-97808800D02*
X154400000Y-100584000D01*
X152755600Y-96164400D02*
X154400000Y-97808800D01*
X150285200Y-104698800D02*
X149178800Y-104698800D01*
X142485000Y-92447000D02*
X142485000Y-94225000D01*
%TO.N,/AN1|CLK*%
X140716000Y-96901000D02*
X141325600Y-96901000D01*
X138734800Y-98882200D02*
X140716000Y-96901000D01*
X138734800Y-99263200D02*
X138734800Y-98882200D01*
%TO.N,VCC*%
X138009799Y-99604999D02*
X138009799Y-98591201D01*
X138009799Y-98591201D02*
X140462000Y-96139000D01*
X140462000Y-91033600D02*
X139649200Y-90220800D01*
X140462000Y-96139000D02*
X140462000Y-91033600D01*
X139649200Y-90220800D02*
X139649200Y-88696800D01*
X145745200Y-98044000D02*
X145034000Y-98044000D01*
X139391292Y-100611631D02*
X139016431Y-100611631D01*
X141732000Y-89154000D02*
X140462000Y-87884000D01*
X146862800Y-96926400D02*
X145745200Y-98044000D01*
X145034000Y-98044000D02*
X141732000Y-94742000D01*
X139649200Y-88696800D02*
X140462000Y-87884000D01*
X139016431Y-100611631D02*
X138009799Y-99604999D01*
X141732000Y-94742000D02*
X141732000Y-89154000D01*
X148996400Y-96926400D02*
X146862800Y-96926400D01*
%TO.N,Net-(C3-Pad1)*%
X147878800Y-104749600D02*
X147878800Y-104394000D01*
%TO.N,/RST*%
X144221200Y-102768400D02*
X143408400Y-101955600D01*
X142818061Y-104038400D02*
X143662400Y-104038400D01*
X143662400Y-104038400D02*
X144221200Y-103479600D01*
X142085369Y-103305708D02*
X142818061Y-104038400D01*
X144221200Y-103479600D02*
X144221200Y-102768400D01*
%TO.N,/AN0|DAT*%
X141605000Y-98044000D02*
X141274800Y-98044000D01*
X140447053Y-89787853D02*
X141097000Y-90437800D01*
X141097000Y-90437800D02*
X141097000Y-95250000D01*
X141097000Y-95250000D02*
X142240000Y-96393000D01*
X142240000Y-96393000D02*
X142240000Y-97409000D01*
X142240000Y-97409000D02*
X141605000Y-98044000D01*
%TD*%
%TA.AperFunction,Conductor*%
%TO.N,GND*%
G36*
X148170891Y-83017843D02*
G01*
X148807960Y-83027851D01*
X148822427Y-83028913D01*
X150148703Y-83203521D01*
X150162952Y-83206239D01*
X151460352Y-83532123D01*
X151474195Y-83536461D01*
X151946782Y-83715037D01*
X152725570Y-84009317D01*
X152738803Y-84015209D01*
X153927536Y-84628759D01*
X153940018Y-84636141D01*
X155050340Y-85382246D01*
X155061894Y-85391017D01*
X156079096Y-86259789D01*
X156089566Y-86269829D01*
X157000176Y-87249762D01*
X157009421Y-87260936D01*
X157747199Y-88265299D01*
X157801372Y-88339047D01*
X157809270Y-88351208D01*
X158020041Y-88720730D01*
X158472049Y-89513186D01*
X158478498Y-89526179D01*
X159003341Y-90756654D01*
X159008255Y-90770303D01*
X159388181Y-92052914D01*
X159391494Y-92067037D01*
X159621488Y-93384843D01*
X159623155Y-93399253D01*
X159700447Y-94739721D01*
X159700594Y-94750928D01*
X159682475Y-95327466D01*
X159677977Y-95470608D01*
X159677126Y-95481787D01*
X159523364Y-96752412D01*
X159515821Y-96814740D01*
X159513253Y-96829017D01*
X159200966Y-98129785D01*
X159196773Y-98143672D01*
X158997077Y-98689369D01*
X158759814Y-99337722D01*
X158737056Y-99399910D01*
X158731296Y-99413221D01*
X158608002Y-99658363D01*
X158130236Y-100608294D01*
X158122983Y-100620857D01*
X157388544Y-101738933D01*
X157379895Y-101750579D01*
X157074832Y-102115430D01*
X156522366Y-102776173D01*
X156521817Y-102776829D01*
X156511887Y-102787403D01*
X155541544Y-103708224D01*
X155530464Y-103717587D01*
X154460716Y-104520777D01*
X154448633Y-104528805D01*
X153293644Y-105203726D01*
X153280719Y-105210311D01*
X152055826Y-105748002D01*
X152042249Y-105753052D01*
X150873695Y-106112546D01*
X150763662Y-106146396D01*
X150749575Y-106149856D01*
X149434253Y-106393636D01*
X149419861Y-106395454D01*
X148651008Y-106447870D01*
X148085241Y-106486440D01*
X148070742Y-106486592D01*
X147631303Y-106465869D01*
X146734509Y-106423577D01*
X146720082Y-106422061D01*
X145399948Y-106205880D01*
X145385791Y-106202715D01*
X144099262Y-105836237D01*
X144085563Y-105831467D01*
X143372082Y-105535934D01*
X142849660Y-105319540D01*
X142836613Y-105313232D01*
X141667755Y-104662655D01*
X141655507Y-104654883D01*
X140569166Y-103874268D01*
X140557892Y-103865138D01*
X139568479Y-102964840D01*
X139558330Y-102954476D01*
X139209440Y-102554536D01*
X139609268Y-102554536D01*
X139615623Y-102563026D01*
X139621797Y-102567035D01*
X139633503Y-102573000D01*
X139799364Y-102636668D01*
X139812049Y-102640067D01*
X139933033Y-102659228D01*
X139997186Y-102689640D01*
X140034714Y-102749908D01*
X140037772Y-102763967D01*
X140056933Y-102884951D01*
X140060332Y-102897636D01*
X140124000Y-103063497D01*
X140129965Y-103075203D01*
X140132164Y-103078590D01*
X140142867Y-103087774D01*
X140152494Y-103083322D01*
X140815321Y-102420495D01*
X140822935Y-102406551D01*
X140822804Y-102404718D01*
X140818553Y-102398103D01*
X140302129Y-101881679D01*
X140288185Y-101874065D01*
X140286352Y-101874196D01*
X140279737Y-101878447D01*
X139616028Y-102542156D01*
X139609268Y-102554536D01*
X139209440Y-102554536D01*
X138678950Y-101946425D01*
X138670059Y-101934963D01*
X137912364Y-100832508D01*
X137904850Y-100820100D01*
X137278902Y-99637892D01*
X137272863Y-99624703D01*
X137258120Y-99586887D01*
X137625727Y-99586887D01*
X137626951Y-99597226D01*
X137629426Y-99618140D01*
X137629811Y-99624664D01*
X137629871Y-99624659D01*
X137630299Y-99629838D01*
X137630299Y-99635038D01*
X137631153Y-99640166D01*
X137631153Y-99640171D01*
X137633711Y-99655539D01*
X137634548Y-99661416D01*
X137640567Y-99712271D01*
X137644526Y-99720517D01*
X137646029Y-99729544D01*
X137659167Y-99753894D01*
X137670347Y-99774614D01*
X137673043Y-99779904D01*
X137686449Y-99807822D01*
X137695220Y-99826088D01*
X137700628Y-99832521D01*
X137702556Y-99834449D01*
X137702742Y-99834651D01*
X137705984Y-99840661D01*
X137713631Y-99847729D01*
X137713631Y-99847730D01*
X137740993Y-99873023D01*
X137744560Y-99876453D01*
X138469572Y-100601466D01*
X138503597Y-100663778D01*
X138504925Y-100710272D01*
X138495183Y-100771778D01*
X138484631Y-100838403D01*
X138485377Y-100846295D01*
X138498414Y-100984212D01*
X138500188Y-101002983D01*
X138502872Y-101010438D01*
X138550299Y-101142171D01*
X138556186Y-101158524D01*
X138649107Y-101295253D01*
X138655055Y-101300497D01*
X138655056Y-101300498D01*
X138703387Y-101343107D01*
X138773112Y-101404577D01*
X138780172Y-101408174D01*
X138780173Y-101408175D01*
X138913344Y-101476029D01*
X138913346Y-101476030D01*
X138920408Y-101479628D01*
X139012327Y-101500174D01*
X139040591Y-101506492D01*
X139102708Y-101540873D01*
X139136376Y-101603378D01*
X139138932Y-101636052D01*
X139130427Y-101798334D01*
X139131114Y-101811443D01*
X139158907Y-101986925D01*
X139162306Y-101999610D01*
X139225974Y-102165471D01*
X139231939Y-102177177D01*
X139234138Y-102180564D01*
X139244841Y-102189748D01*
X139254468Y-102185296D01*
X140200222Y-101239542D01*
X140262534Y-101205516D01*
X140333349Y-101210581D01*
X140378412Y-101239542D01*
X141457458Y-102318588D01*
X141491484Y-102380900D01*
X141486419Y-102451715D01*
X141457458Y-102496778D01*
X140514054Y-103440182D01*
X140507294Y-103452562D01*
X140513649Y-103461052D01*
X140519823Y-103465061D01*
X140531529Y-103471026D01*
X140697390Y-103534694D01*
X140710075Y-103538093D01*
X140885557Y-103565886D01*
X140898666Y-103566573D01*
X141059870Y-103558124D01*
X141128944Y-103574533D01*
X141178181Y-103625682D01*
X141191905Y-103672093D01*
X141194265Y-103697060D01*
X141250263Y-103852601D01*
X141254720Y-103859159D01*
X141319845Y-103954987D01*
X141343184Y-103989330D01*
X141349132Y-103994574D01*
X141349133Y-103994575D01*
X141437177Y-104072195D01*
X141467189Y-104098654D01*
X141474249Y-104102251D01*
X141474250Y-104102252D01*
X141607421Y-104170106D01*
X141607423Y-104170107D01*
X141614485Y-104173705D01*
X141775818Y-104209767D01*
X141941051Y-104204575D01*
X141948663Y-104202363D01*
X141948666Y-104202363D01*
X142092188Y-104160666D01*
X142092190Y-104160665D01*
X142099801Y-104158454D01*
X142205207Y-104096117D01*
X142274023Y-104078657D01*
X142341354Y-104101174D01*
X142358441Y-104115475D01*
X142512406Y-104269440D01*
X142525483Y-104285632D01*
X142528024Y-104288425D01*
X142533673Y-104297173D01*
X142541852Y-104303620D01*
X142541852Y-104303621D01*
X142558397Y-104316664D01*
X142563277Y-104321001D01*
X142563317Y-104320954D01*
X142567274Y-104324307D01*
X142570955Y-104327988D01*
X142587852Y-104340063D01*
X142592598Y-104343627D01*
X142632827Y-104375340D01*
X142641461Y-104378372D01*
X142648904Y-104383691D01*
X142658882Y-104386675D01*
X142697964Y-104398363D01*
X142703613Y-104400198D01*
X142751954Y-104417175D01*
X142760326Y-104417900D01*
X142763040Y-104417900D01*
X142763332Y-104417913D01*
X142769870Y-104419868D01*
X142817489Y-104417997D01*
X142822436Y-104417900D01*
X143609641Y-104417900D01*
X143630343Y-104420103D01*
X143634109Y-104420281D01*
X143644288Y-104422472D01*
X143675541Y-104418773D01*
X143682065Y-104418388D01*
X143682060Y-104418328D01*
X143687237Y-104417900D01*
X143692440Y-104417900D01*
X143712940Y-104414488D01*
X143718813Y-104413653D01*
X143759328Y-104408857D01*
X143759332Y-104408856D01*
X143769672Y-104407632D01*
X143777917Y-104403673D01*
X143786946Y-104402170D01*
X143796106Y-104397228D01*
X143796114Y-104397225D01*
X143832049Y-104377835D01*
X143837312Y-104375153D01*
X143883489Y-104352979D01*
X143889922Y-104347571D01*
X143891852Y-104345641D01*
X143892049Y-104345460D01*
X143898063Y-104342215D01*
X143917434Y-104321260D01*
X143930420Y-104307211D01*
X143933850Y-104303643D01*
X144452242Y-103785252D01*
X144468430Y-103772178D01*
X144471220Y-103769639D01*
X144479972Y-103763988D01*
X144499456Y-103739273D01*
X144503802Y-103734383D01*
X144503755Y-103734343D01*
X144507108Y-103730386D01*
X144510788Y-103726706D01*
X144522883Y-103709780D01*
X144526437Y-103705048D01*
X144526589Y-103704856D01*
X144558140Y-103664834D01*
X144561172Y-103656200D01*
X144566491Y-103648757D01*
X144581163Y-103599697D01*
X144582998Y-103594049D01*
X144597347Y-103553190D01*
X144599975Y-103545707D01*
X144600700Y-103537335D01*
X144600700Y-103534621D01*
X144600713Y-103534329D01*
X144602668Y-103527791D01*
X144600797Y-103480171D01*
X144600700Y-103475224D01*
X144600700Y-102821159D01*
X144602903Y-102800457D01*
X144603081Y-102796691D01*
X144605272Y-102786512D01*
X144601573Y-102755259D01*
X144601188Y-102748734D01*
X144601128Y-102748739D01*
X144600700Y-102743559D01*
X144600700Y-102738360D01*
X144599847Y-102733234D01*
X144599846Y-102733224D01*
X144597288Y-102717857D01*
X144596451Y-102711981D01*
X144591655Y-102671463D01*
X144590432Y-102661127D01*
X144586473Y-102652881D01*
X144584970Y-102643854D01*
X144560652Y-102598784D01*
X144557956Y-102593494D01*
X144539210Y-102554455D01*
X144539210Y-102554454D01*
X144535779Y-102547310D01*
X144530371Y-102540877D01*
X144528443Y-102538949D01*
X144528257Y-102538747D01*
X144525015Y-102532737D01*
X144517366Y-102525667D01*
X144517365Y-102525665D01*
X144490011Y-102500379D01*
X144486444Y-102496950D01*
X144334231Y-102344737D01*
X144167236Y-102177743D01*
X144133211Y-102115430D01*
X144139179Y-102042263D01*
X144145864Y-102025380D01*
X144145865Y-102025375D01*
X144148781Y-102018011D01*
X144158097Y-101944271D01*
X144168506Y-101861868D01*
X144169500Y-101854000D01*
X144153923Y-101730694D01*
X144149775Y-101697854D01*
X144149774Y-101697851D01*
X144148781Y-101689989D01*
X144120236Y-101617893D01*
X144090842Y-101543652D01*
X144090841Y-101543650D01*
X144087924Y-101536283D01*
X144074039Y-101517171D01*
X144003692Y-101420348D01*
X143990755Y-101402541D01*
X143984647Y-101397488D01*
X143869487Y-101302219D01*
X143869483Y-101302216D01*
X143863378Y-101297166D01*
X143713797Y-101226778D01*
X143706014Y-101225293D01*
X143706013Y-101225293D01*
X143559196Y-101197286D01*
X143559194Y-101197286D01*
X143551410Y-101195801D01*
X143468916Y-101200991D01*
X143394333Y-101205684D01*
X143394331Y-101205684D01*
X143386422Y-101206182D01*
X143378886Y-101208631D01*
X143378884Y-101208631D01*
X143236741Y-101254816D01*
X143236738Y-101254817D01*
X143229199Y-101257267D01*
X143089619Y-101345847D01*
X143084192Y-101351626D01*
X143084191Y-101351627D01*
X143031089Y-101408175D01*
X142976453Y-101466356D01*
X142972636Y-101473300D01*
X142972634Y-101473302D01*
X142964578Y-101487956D01*
X142914233Y-101538015D01*
X142844816Y-101552909D01*
X142777462Y-101527221D01*
X142764364Y-101517171D01*
X142757814Y-101512145D01*
X142610814Y-101451255D01*
X142602630Y-101450178D01*
X142602628Y-101450177D01*
X142461252Y-101431565D01*
X142453064Y-101430487D01*
X142444876Y-101431565D01*
X142332929Y-101446303D01*
X142295314Y-101451255D01*
X142294273Y-101451686D01*
X142226599Y-101450073D01*
X142167804Y-101410277D01*
X142139859Y-101345011D01*
X142142959Y-101301670D01*
X142143770Y-101299712D01*
X142145221Y-101288695D01*
X142163460Y-101150150D01*
X142164538Y-101141962D01*
X142146727Y-101006672D01*
X142144848Y-100992398D01*
X142144847Y-100992396D01*
X142143770Y-100984212D01*
X142082880Y-100837212D01*
X141986020Y-100710980D01*
X141859788Y-100614120D01*
X141712788Y-100553230D01*
X141704604Y-100552153D01*
X141704602Y-100552152D01*
X141563226Y-100533540D01*
X141555038Y-100532462D01*
X141546850Y-100533540D01*
X141405474Y-100552152D01*
X141405472Y-100552153D01*
X141397288Y-100553230D01*
X141396249Y-100553660D01*
X141328576Y-100552049D01*
X141269781Y-100512253D01*
X141241834Y-100446989D01*
X141244933Y-100403646D01*
X141245745Y-100401686D01*
X141266513Y-100243936D01*
X141245745Y-100086186D01*
X141184855Y-99939186D01*
X141087995Y-99812954D01*
X140961763Y-99716094D01*
X140814763Y-99655204D01*
X140806579Y-99654127D01*
X140806577Y-99654126D01*
X140665201Y-99635514D01*
X140657013Y-99634436D01*
X140499263Y-99655204D01*
X140498222Y-99655635D01*
X140430548Y-99654022D01*
X140371753Y-99614226D01*
X140343808Y-99548960D01*
X140346907Y-99505620D01*
X140347719Y-99503660D01*
X140368487Y-99345910D01*
X140365292Y-99321641D01*
X140348797Y-99196346D01*
X140348796Y-99196344D01*
X140347719Y-99188160D01*
X140286829Y-99041160D01*
X140189969Y-98914928D01*
X140063737Y-98818068D01*
X139916737Y-98757178D01*
X139908553Y-98756101D01*
X139908551Y-98756100D01*
X139767175Y-98737488D01*
X139758987Y-98736410D01*
X139733484Y-98739768D01*
X139663338Y-98728830D01*
X139610238Y-98681702D01*
X139591047Y-98613349D01*
X139611857Y-98545471D01*
X139627943Y-98525751D01*
X140525887Y-97627807D01*
X140588199Y-97593781D01*
X140659014Y-97598846D01*
X140715850Y-97641393D01*
X140740661Y-97707913D01*
X140725396Y-97777604D01*
X140718203Y-97790689D01*
X140712412Y-97801222D01*
X140671300Y-97961343D01*
X140671300Y-98126657D01*
X140712412Y-98286778D01*
X140792053Y-98431644D01*
X140797477Y-98437420D01*
X140887671Y-98533466D01*
X140905219Y-98552153D01*
X141044799Y-98640733D01*
X141052338Y-98643183D01*
X141052341Y-98643184D01*
X141194484Y-98689369D01*
X141194486Y-98689369D01*
X141202022Y-98691818D01*
X141209931Y-98692316D01*
X141209933Y-98692316D01*
X141284516Y-98697008D01*
X141367010Y-98702199D01*
X141374794Y-98700714D01*
X141374796Y-98700714D01*
X141521613Y-98672707D01*
X141521614Y-98672707D01*
X141529397Y-98671222D01*
X141678978Y-98600834D01*
X141685083Y-98595784D01*
X141685087Y-98595781D01*
X141800247Y-98500512D01*
X141806355Y-98495459D01*
X141857206Y-98425468D01*
X141898865Y-98368130D01*
X141898866Y-98368128D01*
X141903524Y-98361717D01*
X141946058Y-98254290D01*
X141974114Y-98211579D01*
X142219700Y-97965994D01*
X142471040Y-97714654D01*
X142487234Y-97701576D01*
X142490024Y-97699037D01*
X142498773Y-97693388D01*
X142515432Y-97672257D01*
X142518264Y-97668664D01*
X142522601Y-97663784D01*
X142522554Y-97663744D01*
X142525907Y-97659787D01*
X142529588Y-97656106D01*
X142541664Y-97639208D01*
X142545227Y-97634462D01*
X142570493Y-97602412D01*
X142576940Y-97594234D01*
X142579972Y-97585600D01*
X142585291Y-97578157D01*
X142599963Y-97529097D01*
X142601798Y-97523449D01*
X142616147Y-97482590D01*
X142618775Y-97475107D01*
X142619500Y-97466735D01*
X142619500Y-97464021D01*
X142619513Y-97463729D01*
X142621468Y-97457191D01*
X142619597Y-97409571D01*
X142619500Y-97404624D01*
X142619500Y-96470383D01*
X142639502Y-96402262D01*
X142693158Y-96355769D01*
X142763432Y-96345665D01*
X142828012Y-96375159D01*
X142834589Y-96381282D01*
X143796110Y-97342804D01*
X144728344Y-98275038D01*
X144741425Y-98291234D01*
X144743961Y-98294021D01*
X144749612Y-98302773D01*
X144757791Y-98309220D01*
X144757791Y-98309221D01*
X144774336Y-98322264D01*
X144779216Y-98326601D01*
X144779256Y-98326554D01*
X144783212Y-98329906D01*
X144786894Y-98333588D01*
X144791130Y-98336615D01*
X144791131Y-98336616D01*
X144803793Y-98345665D01*
X144808540Y-98349228D01*
X144848766Y-98380940D01*
X144857398Y-98383971D01*
X144864842Y-98389291D01*
X144913907Y-98403964D01*
X144919548Y-98405797D01*
X144937285Y-98412026D01*
X144967893Y-98422775D01*
X144976265Y-98423500D01*
X144978978Y-98423500D01*
X144979270Y-98423513D01*
X144985809Y-98425468D01*
X144996216Y-98425059D01*
X145033419Y-98423597D01*
X145038367Y-98423500D01*
X145149480Y-98423500D01*
X145217601Y-98443502D01*
X145241330Y-98463247D01*
X145310051Y-98536427D01*
X145324819Y-98552153D01*
X145464399Y-98640733D01*
X145471938Y-98643183D01*
X145471941Y-98643184D01*
X145614084Y-98689369D01*
X145614086Y-98689369D01*
X145621622Y-98691818D01*
X145629531Y-98692316D01*
X145629533Y-98692316D01*
X145704116Y-98697008D01*
X145786610Y-98702199D01*
X145794394Y-98700714D01*
X145794396Y-98700714D01*
X145941213Y-98672707D01*
X145941214Y-98672707D01*
X145948997Y-98671222D01*
X146098578Y-98600834D01*
X146104683Y-98595784D01*
X146104687Y-98595781D01*
X146219847Y-98500512D01*
X146225955Y-98495459D01*
X146276806Y-98425468D01*
X146318465Y-98368130D01*
X146318466Y-98368128D01*
X146323124Y-98361717D01*
X146328069Y-98349229D01*
X146381064Y-98215379D01*
X146381064Y-98215377D01*
X146383981Y-98208011D01*
X146404700Y-98044000D01*
X146398662Y-97996207D01*
X146409968Y-97926119D01*
X146434573Y-97891320D01*
X146707445Y-97618449D01*
X146983090Y-97342804D01*
X147045402Y-97308779D01*
X147072185Y-97305900D01*
X148400680Y-97305900D01*
X148468801Y-97325902D01*
X148492530Y-97345647D01*
X148552559Y-97409571D01*
X148576019Y-97434553D01*
X148715599Y-97523133D01*
X148723138Y-97525583D01*
X148723141Y-97525584D01*
X148865284Y-97571769D01*
X148865286Y-97571769D01*
X148872822Y-97574218D01*
X148880731Y-97574716D01*
X148880733Y-97574716D01*
X148951732Y-97579183D01*
X149037810Y-97584599D01*
X149045594Y-97583114D01*
X149045596Y-97583114D01*
X149192413Y-97555107D01*
X149192414Y-97555107D01*
X149200197Y-97553622D01*
X149349778Y-97483234D01*
X149355883Y-97478184D01*
X149355887Y-97478181D01*
X149471047Y-97382912D01*
X149477155Y-97377859D01*
X149523519Y-97314044D01*
X149569665Y-97250530D01*
X149569666Y-97250528D01*
X149574324Y-97244117D01*
X149635181Y-97090411D01*
X149639478Y-97056402D01*
X149654906Y-96934268D01*
X149655900Y-96926400D01*
X149642828Y-96822923D01*
X149636175Y-96770254D01*
X149636174Y-96770251D01*
X149635181Y-96762389D01*
X149632264Y-96755023D01*
X149632263Y-96755017D01*
X149616927Y-96716283D01*
X149610448Y-96645583D01*
X149643221Y-96582603D01*
X149704840Y-96547339D01*
X149734079Y-96543900D01*
X152546217Y-96543900D01*
X152614338Y-96563902D01*
X152635312Y-96580805D01*
X153983595Y-97929089D01*
X154017621Y-97991401D01*
X154020500Y-98018184D01*
X154020501Y-99467116D01*
X154000499Y-99535237D01*
X153953267Y-99578573D01*
X153919374Y-99596442D01*
X153777574Y-99716272D01*
X153664814Y-99863757D01*
X153586355Y-100032014D01*
X153545856Y-100213193D01*
X153545500Y-100219561D01*
X153545500Y-100849616D01*
X153525498Y-100917737D01*
X153508595Y-100938711D01*
X153469595Y-100977711D01*
X153407283Y-101011737D01*
X153336468Y-101006672D01*
X153279632Y-100964125D01*
X153254821Y-100897605D01*
X153254500Y-100888616D01*
X153254500Y-99924086D01*
X153247778Y-99877150D01*
X153240295Y-99824893D01*
X153240294Y-99824890D01*
X153239021Y-99816000D01*
X153224035Y-99783039D01*
X153199711Y-99729544D01*
X153179229Y-99684496D01*
X153084933Y-99575059D01*
X152963711Y-99496487D01*
X152865501Y-99467116D01*
X152831850Y-99457052D01*
X152831848Y-99457052D01*
X152825309Y-99455096D01*
X152817288Y-99454500D01*
X152015086Y-99454500D01*
X151972597Y-99460585D01*
X151915893Y-99468705D01*
X151915890Y-99468706D01*
X151907000Y-99469979D01*
X151898824Y-99473696D01*
X151898822Y-99473697D01*
X151870143Y-99486737D01*
X151775496Y-99529771D01*
X151666059Y-99624067D01*
X151587487Y-99745289D01*
X151563680Y-99824893D01*
X151548261Y-99876453D01*
X151546096Y-99883691D01*
X151545500Y-99891712D01*
X151545500Y-101243914D01*
X151548021Y-101261517D01*
X151552319Y-101291526D01*
X151560979Y-101352000D01*
X151620771Y-101483504D01*
X151715067Y-101592941D01*
X151836289Y-101671513D01*
X151891261Y-101687953D01*
X151968150Y-101710948D01*
X151968152Y-101710948D01*
X151974691Y-101712904D01*
X151982712Y-101713500D01*
X152429616Y-101713500D01*
X152497737Y-101733502D01*
X152544230Y-101787158D01*
X152554334Y-101857432D01*
X152524840Y-101922012D01*
X152518711Y-101928595D01*
X150164912Y-104282395D01*
X150102600Y-104316420D01*
X150075817Y-104319300D01*
X150023938Y-104319300D01*
X149955817Y-104299298D01*
X149909324Y-104245642D01*
X149903007Y-104228676D01*
X149894931Y-104201059D01*
X149836254Y-104072007D01*
X149796615Y-104010025D01*
X149743861Y-103948800D01*
X149707001Y-103906021D01*
X149706998Y-103906018D01*
X149704077Y-103902628D01*
X149700708Y-103899689D01*
X149700704Y-103899685D01*
X149671538Y-103874242D01*
X149648631Y-103854259D01*
X149641280Y-103849494D01*
X149533427Y-103779588D01*
X149529669Y-103777152D01*
X149462879Y-103746291D01*
X149327058Y-103705672D01*
X149322618Y-103705008D01*
X149322616Y-103705008D01*
X149258719Y-103695459D01*
X149258718Y-103695459D01*
X149254289Y-103694797D01*
X149233444Y-103694670D01*
X149216942Y-103694569D01*
X149193131Y-103692150D01*
X149184872Y-103690507D01*
X149184864Y-103690506D01*
X149178800Y-103689300D01*
X148628800Y-103689300D01*
X148529494Y-103709053D01*
X148528659Y-103704856D01*
X148481426Y-103709933D01*
X148478124Y-103708963D01*
X148478106Y-103709053D01*
X148455292Y-103704515D01*
X148378800Y-103689300D01*
X147378800Y-103689300D01*
X147279494Y-103709053D01*
X147195306Y-103765306D01*
X147139053Y-103849494D01*
X147119300Y-103948800D01*
X147119300Y-105448800D01*
X147139053Y-105548106D01*
X147195306Y-105632294D01*
X147279494Y-105688547D01*
X147378800Y-105708300D01*
X148378800Y-105708300D01*
X148478106Y-105688547D01*
X148478941Y-105692744D01*
X148526174Y-105687667D01*
X148529476Y-105688637D01*
X148529494Y-105688547D01*
X148628800Y-105708300D01*
X149178800Y-105708300D01*
X149184867Y-105707093D01*
X149184870Y-105707093D01*
X149188152Y-105706440D01*
X149215035Y-105704041D01*
X149231369Y-105704340D01*
X149235844Y-105704422D01*
X149308858Y-105695328D01*
X149313181Y-105694149D01*
X149313188Y-105694148D01*
X149441311Y-105659217D01*
X149441314Y-105659216D01*
X149445631Y-105658039D01*
X149449734Y-105656263D01*
X149449741Y-105656261D01*
X149509031Y-105630604D01*
X149509036Y-105630602D01*
X149513155Y-105628819D01*
X149633965Y-105554642D01*
X149637410Y-105551782D01*
X149637414Y-105551779D01*
X149662270Y-105531143D01*
X149690575Y-105507643D01*
X149785710Y-105402539D01*
X149788218Y-105398821D01*
X149824342Y-105345266D01*
X149824343Y-105345264D01*
X149826853Y-105341543D01*
X149888665Y-105213964D01*
X149903975Y-105165990D01*
X149943741Y-105107177D01*
X150008992Y-105079198D01*
X150024010Y-105078300D01*
X150232441Y-105078300D01*
X150253143Y-105080503D01*
X150256909Y-105080681D01*
X150267088Y-105082872D01*
X150298341Y-105079173D01*
X150304865Y-105078788D01*
X150304860Y-105078728D01*
X150310037Y-105078300D01*
X150315240Y-105078300D01*
X150335740Y-105074888D01*
X150341613Y-105074053D01*
X150382128Y-105069257D01*
X150382132Y-105069256D01*
X150392472Y-105068032D01*
X150400717Y-105064073D01*
X150409746Y-105062570D01*
X150418906Y-105057628D01*
X150418914Y-105057625D01*
X150454849Y-105038235D01*
X150460112Y-105035553D01*
X150506289Y-105013379D01*
X150512722Y-105007971D01*
X150514652Y-105006041D01*
X150514849Y-105005860D01*
X150520863Y-105002615D01*
X150553233Y-104967596D01*
X150556663Y-104964030D01*
X153870820Y-101649874D01*
X153933132Y-101615848D01*
X154006707Y-101621980D01*
X154162520Y-101684301D01*
X154162524Y-101684302D01*
X154168864Y-101686838D01*
X154277990Y-101704904D01*
X154345285Y-101716045D01*
X154345288Y-101716045D01*
X154352022Y-101717160D01*
X154358839Y-101716803D01*
X154358843Y-101716803D01*
X154514843Y-101708627D01*
X154537418Y-101707444D01*
X154716403Y-101658143D01*
X154880626Y-101571558D01*
X155022426Y-101451728D01*
X155054118Y-101410277D01*
X155131042Y-101309665D01*
X155131045Y-101309661D01*
X155135186Y-101304244D01*
X155213645Y-101135987D01*
X155242551Y-101006672D01*
X155253017Y-100959852D01*
X155253018Y-100959846D01*
X155254144Y-100954808D01*
X155254500Y-100948440D01*
X155254500Y-100318383D01*
X155274502Y-100250262D01*
X155291405Y-100229288D01*
X157711039Y-97809655D01*
X157727231Y-97796577D01*
X157730020Y-97794039D01*
X157738772Y-97788388D01*
X157758256Y-97763673D01*
X157762602Y-97758783D01*
X157762555Y-97758743D01*
X157765908Y-97754786D01*
X157769588Y-97751106D01*
X157781683Y-97734180D01*
X157785237Y-97729448D01*
X157806755Y-97702154D01*
X157816940Y-97689234D01*
X157819972Y-97680600D01*
X157825291Y-97673157D01*
X157839963Y-97624097D01*
X157841798Y-97618449D01*
X157853686Y-97584599D01*
X157858775Y-97570107D01*
X157859500Y-97561735D01*
X157859500Y-97559021D01*
X157859513Y-97558729D01*
X157861468Y-97552191D01*
X157859597Y-97504571D01*
X157859500Y-97499624D01*
X157859500Y-89613159D01*
X157861703Y-89592457D01*
X157861881Y-89588691D01*
X157864072Y-89578512D01*
X157860373Y-89547259D01*
X157859988Y-89540734D01*
X157859928Y-89540739D01*
X157859500Y-89535559D01*
X157859500Y-89530360D01*
X157858647Y-89525234D01*
X157858646Y-89525224D01*
X157856088Y-89509857D01*
X157855251Y-89503981D01*
X157850455Y-89463463D01*
X157849232Y-89453127D01*
X157845273Y-89444881D01*
X157843770Y-89435854D01*
X157825747Y-89402452D01*
X157819452Y-89390784D01*
X157816756Y-89385494D01*
X157798010Y-89346455D01*
X157798010Y-89346454D01*
X157794579Y-89339310D01*
X157789171Y-89332877D01*
X157787243Y-89330949D01*
X157787057Y-89330747D01*
X157783815Y-89324737D01*
X157776166Y-89317667D01*
X157776165Y-89317665D01*
X157748811Y-89292379D01*
X157745244Y-89288950D01*
X157503021Y-89046727D01*
X157254973Y-88798680D01*
X157220948Y-88736367D01*
X157219062Y-88693795D01*
X157225100Y-88646000D01*
X157217063Y-88582376D01*
X157205375Y-88489854D01*
X157205374Y-88489851D01*
X157204381Y-88481989D01*
X157200166Y-88471342D01*
X157146442Y-88335652D01*
X157146441Y-88335650D01*
X157143524Y-88328283D01*
X157046355Y-88194541D01*
X157040247Y-88189488D01*
X156925087Y-88094219D01*
X156925083Y-88094216D01*
X156918978Y-88089166D01*
X156769397Y-88018778D01*
X156761614Y-88017293D01*
X156761613Y-88017293D01*
X156614796Y-87989286D01*
X156614794Y-87989286D01*
X156607010Y-87987801D01*
X156524516Y-87992992D01*
X156449933Y-87997684D01*
X156449931Y-87997684D01*
X156442022Y-87998182D01*
X156434486Y-88000631D01*
X156434484Y-88000631D01*
X156292341Y-88046816D01*
X156292338Y-88046817D01*
X156284799Y-88049267D01*
X156145219Y-88137847D01*
X156139792Y-88143626D01*
X156139791Y-88143627D01*
X156085956Y-88200955D01*
X156032053Y-88258356D01*
X155952412Y-88403222D01*
X155911300Y-88563343D01*
X155911300Y-88728657D01*
X155952412Y-88888778D01*
X156032053Y-89033644D01*
X156037477Y-89039420D01*
X156126608Y-89134334D01*
X156145219Y-89154153D01*
X156284799Y-89242733D01*
X156292338Y-89245183D01*
X156292341Y-89245184D01*
X156434484Y-89291369D01*
X156434486Y-89291369D01*
X156442022Y-89293818D01*
X156449931Y-89294316D01*
X156449933Y-89294316D01*
X156524516Y-89299009D01*
X156607010Y-89304199D01*
X156614797Y-89302714D01*
X156622709Y-89302216D01*
X156622899Y-89305241D01*
X156679443Y-89310767D01*
X156721448Y-89338542D01*
X157063596Y-89680690D01*
X157097622Y-89743002D01*
X157100501Y-89769785D01*
X157100500Y-97294616D01*
X157080498Y-97362737D01*
X157063595Y-97383711D01*
X155984060Y-98463247D01*
X154994595Y-99452712D01*
X154932283Y-99486737D01*
X154861468Y-99481673D01*
X154804632Y-99439126D01*
X154779821Y-99372606D01*
X154779500Y-99363617D01*
X154779500Y-97861559D01*
X154781703Y-97840857D01*
X154781881Y-97837091D01*
X154784072Y-97826912D01*
X154780373Y-97795659D01*
X154779988Y-97789134D01*
X154779928Y-97789139D01*
X154779500Y-97783959D01*
X154779500Y-97778760D01*
X154778647Y-97773634D01*
X154778646Y-97773624D01*
X154776088Y-97758257D01*
X154775251Y-97752381D01*
X154772813Y-97731785D01*
X154769232Y-97701527D01*
X154765273Y-97693281D01*
X154763770Y-97684254D01*
X154739452Y-97639184D01*
X154736756Y-97633894D01*
X154718010Y-97594855D01*
X154718010Y-97594854D01*
X154714579Y-97587710D01*
X154709171Y-97581277D01*
X154707246Y-97579352D01*
X154707057Y-97579146D01*
X154703815Y-97573137D01*
X154691481Y-97561735D01*
X154668814Y-97540783D01*
X154665247Y-97537353D01*
X153061259Y-95933366D01*
X153048172Y-95917162D01*
X153045637Y-95914376D01*
X153039988Y-95905627D01*
X153015260Y-95886133D01*
X153010385Y-95881800D01*
X153010345Y-95881847D01*
X153006384Y-95878491D01*
X153002705Y-95874812D01*
X152985821Y-95862747D01*
X152981080Y-95859188D01*
X152940834Y-95827460D01*
X152932198Y-95824427D01*
X152924756Y-95819109D01*
X152875704Y-95804439D01*
X152870056Y-95802604D01*
X152829193Y-95788253D01*
X152829186Y-95788251D01*
X152821707Y-95785625D01*
X152813335Y-95784900D01*
X152810599Y-95784900D01*
X152810331Y-95784888D01*
X152803790Y-95782932D01*
X152778466Y-95783927D01*
X152756171Y-95784803D01*
X152751224Y-95784900D01*
X150762863Y-95784900D01*
X150694742Y-95764898D01*
X150648249Y-95711242D01*
X150637184Y-95649913D01*
X150638000Y-95638502D01*
X150638000Y-95015115D01*
X150633525Y-94999876D01*
X150632135Y-94998671D01*
X150624452Y-94997000D01*
X149479002Y-94996999D01*
X149478996Y-94997000D01*
X149097000Y-94996999D01*
X149028879Y-94976997D01*
X148982386Y-94923341D01*
X148971000Y-94870999D01*
X148971000Y-94470885D01*
X149478999Y-94470885D01*
X149483474Y-94486124D01*
X149484864Y-94487329D01*
X149492547Y-94489000D01*
X150619885Y-94489001D01*
X150635124Y-94484526D01*
X150636329Y-94483136D01*
X150638000Y-94475453D01*
X150638000Y-93845257D01*
X150637839Y-93840750D01*
X150633260Y-93776731D01*
X150630874Y-93763509D01*
X150594181Y-93638542D01*
X150586767Y-93622308D01*
X150517574Y-93514640D01*
X150505888Y-93501153D01*
X150409160Y-93417338D01*
X150394152Y-93407693D01*
X150277725Y-93354523D01*
X150260612Y-93349498D01*
X150129446Y-93330639D01*
X150120505Y-93330000D01*
X149497115Y-93330000D01*
X149481876Y-93334475D01*
X149480671Y-93335865D01*
X149479000Y-93343548D01*
X149478999Y-94470885D01*
X148971000Y-94470885D01*
X148971001Y-93348115D01*
X148966526Y-93332876D01*
X148965136Y-93331671D01*
X148957453Y-93330000D01*
X148327257Y-93330000D01*
X148322750Y-93330161D01*
X148258731Y-93334740D01*
X148245509Y-93337126D01*
X148120542Y-93373819D01*
X148104308Y-93381233D01*
X147996640Y-93450426D01*
X147983153Y-93462112D01*
X147899338Y-93558840D01*
X147889693Y-93573848D01*
X147836523Y-93690275D01*
X147831498Y-93707388D01*
X147812639Y-93838554D01*
X147812000Y-93847495D01*
X147812000Y-93943132D01*
X147791998Y-94011253D01*
X147738342Y-94057746D01*
X147668068Y-94067850D01*
X147603488Y-94038356D01*
X147585042Y-94018521D01*
X147550129Y-93971767D01*
X147550128Y-93971766D01*
X147546676Y-93967143D01*
X147409945Y-93840750D01*
X147395099Y-93827026D01*
X147395096Y-93827024D01*
X147390859Y-93823107D01*
X147211402Y-93709878D01*
X147014316Y-93631249D01*
X146806201Y-93589852D01*
X146800427Y-93589776D01*
X146800423Y-93589776D01*
X146691966Y-93588356D01*
X146594027Y-93587074D01*
X146588330Y-93588053D01*
X146588329Y-93588053D01*
X146578302Y-93589776D01*
X146384899Y-93623009D01*
X146185822Y-93696452D01*
X146003463Y-93804945D01*
X145843928Y-93944853D01*
X145840361Y-93949378D01*
X145840356Y-93949383D01*
X145717905Y-94104712D01*
X145712561Y-94111491D01*
X145613762Y-94299279D01*
X145600956Y-94340520D01*
X145554852Y-94489000D01*
X145550838Y-94501926D01*
X145525897Y-94712648D01*
X145539775Y-94924386D01*
X145592007Y-95130049D01*
X145680844Y-95322750D01*
X145803309Y-95496035D01*
X145807443Y-95500062D01*
X145877846Y-95568646D01*
X145912683Y-95630508D01*
X145908546Y-95701384D01*
X145866747Y-95758771D01*
X145800557Y-95784451D01*
X145789924Y-95784900D01*
X144633784Y-95784900D01*
X144565663Y-95764898D01*
X144544689Y-95747995D01*
X142901405Y-94104712D01*
X142867380Y-94042400D01*
X142864500Y-94015617D01*
X142864500Y-93041515D01*
X142884502Y-92973394D01*
X142910185Y-92944430D01*
X142959647Y-92903512D01*
X142965755Y-92898459D01*
X143062924Y-92764717D01*
X143079972Y-92721661D01*
X143120864Y-92618379D01*
X143120864Y-92618377D01*
X143123781Y-92611011D01*
X143144500Y-92447000D01*
X143123781Y-92282989D01*
X143062924Y-92129283D01*
X142965755Y-91995541D01*
X142959647Y-91990488D01*
X142844487Y-91895219D01*
X142844483Y-91895216D01*
X142838378Y-91890166D01*
X142688797Y-91819778D01*
X142681014Y-91818293D01*
X142681013Y-91818293D01*
X142534196Y-91790286D01*
X142534194Y-91790286D01*
X142526410Y-91788801D01*
X142443916Y-91793991D01*
X142369333Y-91798684D01*
X142369331Y-91798684D01*
X142361422Y-91799182D01*
X142276435Y-91826796D01*
X142205469Y-91828824D01*
X142144671Y-91792161D01*
X142113346Y-91728449D01*
X142111500Y-91706963D01*
X142111500Y-89206759D01*
X142113703Y-89186066D01*
X142113881Y-89182289D01*
X142116072Y-89172112D01*
X142112373Y-89140859D01*
X142111988Y-89134334D01*
X142111928Y-89134339D01*
X142111500Y-89129159D01*
X142111500Y-89123960D01*
X142110647Y-89118834D01*
X142110646Y-89118824D01*
X142108088Y-89103457D01*
X142107251Y-89097581D01*
X142103682Y-89067431D01*
X142101232Y-89046727D01*
X142097273Y-89038481D01*
X142095770Y-89029454D01*
X142090823Y-89020285D01*
X142071438Y-88984357D01*
X142068743Y-88979068D01*
X142050010Y-88940057D01*
X142046578Y-88932910D01*
X142041171Y-88926477D01*
X142039239Y-88924545D01*
X142039058Y-88924347D01*
X142035815Y-88918337D01*
X142028166Y-88911267D01*
X142028165Y-88911265D01*
X142000811Y-88885979D01*
X141997244Y-88882550D01*
X141581288Y-88466594D01*
X141151373Y-88036680D01*
X141117348Y-87974367D01*
X141115462Y-87931795D01*
X141121500Y-87884000D01*
X141100781Y-87719989D01*
X141039924Y-87566283D01*
X140942755Y-87432541D01*
X140936647Y-87427488D01*
X140821487Y-87332219D01*
X140821483Y-87332216D01*
X140815378Y-87327166D01*
X140665797Y-87256778D01*
X140658014Y-87255293D01*
X140658013Y-87255293D01*
X140511196Y-87227286D01*
X140511194Y-87227286D01*
X140503410Y-87225801D01*
X140420916Y-87230991D01*
X140346333Y-87235684D01*
X140346331Y-87235684D01*
X140338422Y-87236182D01*
X140330886Y-87238631D01*
X140330884Y-87238631D01*
X140188741Y-87284816D01*
X140188738Y-87284817D01*
X140181199Y-87287267D01*
X140041619Y-87375847D01*
X140036192Y-87381626D01*
X140036191Y-87381627D01*
X139982356Y-87438955D01*
X139928453Y-87496356D01*
X139848812Y-87641222D01*
X139807700Y-87801343D01*
X139807700Y-87949415D01*
X139787698Y-88017536D01*
X139770796Y-88038510D01*
X139418162Y-88391145D01*
X139401968Y-88404224D01*
X139399180Y-88406761D01*
X139390428Y-88412412D01*
X139383981Y-88420591D01*
X139383980Y-88420591D01*
X139370937Y-88437136D01*
X139366599Y-88442017D01*
X139366646Y-88442057D01*
X139363294Y-88446013D01*
X139359612Y-88449695D01*
X139356585Y-88453931D01*
X139356584Y-88453932D01*
X139347535Y-88466594D01*
X139343972Y-88471341D01*
X139312261Y-88511566D01*
X139309229Y-88520199D01*
X139303909Y-88527644D01*
X139300926Y-88537617D01*
X139300925Y-88537620D01*
X139289229Y-88576729D01*
X139287394Y-88582376D01*
X139280461Y-88602119D01*
X139270426Y-88630693D01*
X139269701Y-88639065D01*
X139269701Y-88641774D01*
X139269688Y-88642069D01*
X139267732Y-88648610D01*
X139268141Y-88659016D01*
X139269604Y-88696253D01*
X139269701Y-88701200D01*
X139269700Y-90168041D01*
X139267497Y-90188743D01*
X139267319Y-90192509D01*
X139265128Y-90202688D01*
X139266352Y-90213027D01*
X139268827Y-90233941D01*
X139269212Y-90240465D01*
X139269272Y-90240460D01*
X139269700Y-90245639D01*
X139269700Y-90250839D01*
X139270554Y-90255967D01*
X139270554Y-90255972D01*
X139273112Y-90271340D01*
X139273949Y-90277217D01*
X139279968Y-90328072D01*
X139283927Y-90336318D01*
X139285430Y-90345345D01*
X139290377Y-90354513D01*
X139309748Y-90390415D01*
X139312444Y-90395705D01*
X139334621Y-90441889D01*
X139340029Y-90448322D01*
X139341957Y-90450250D01*
X139342143Y-90450452D01*
X139345385Y-90456462D01*
X139353032Y-90463530D01*
X139353032Y-90463531D01*
X139380394Y-90488824D01*
X139383961Y-90492254D01*
X140045597Y-91153891D01*
X140079622Y-91216203D01*
X140082501Y-91242986D01*
X140082500Y-95929616D01*
X140062498Y-95997737D01*
X140045595Y-96018711D01*
X137778762Y-98285545D01*
X137762566Y-98298626D01*
X137759779Y-98301162D01*
X137751027Y-98306813D01*
X137744580Y-98314992D01*
X137744579Y-98314992D01*
X137731536Y-98331537D01*
X137727198Y-98336418D01*
X137727245Y-98336458D01*
X137723893Y-98340414D01*
X137720211Y-98344096D01*
X137717184Y-98348332D01*
X137717183Y-98348333D01*
X137708134Y-98360995D01*
X137704571Y-98365742D01*
X137672860Y-98405967D01*
X137669828Y-98414600D01*
X137664508Y-98422045D01*
X137661525Y-98432018D01*
X137661524Y-98432021D01*
X137649828Y-98471130D01*
X137647993Y-98476777D01*
X137639658Y-98500512D01*
X137631025Y-98525094D01*
X137630300Y-98533466D01*
X137630300Y-98536175D01*
X137630287Y-98536470D01*
X137628331Y-98543011D01*
X137628740Y-98553417D01*
X137630203Y-98590654D01*
X137630300Y-98595601D01*
X137630299Y-99552240D01*
X137628096Y-99572942D01*
X137627918Y-99576708D01*
X137625727Y-99586887D01*
X137258120Y-99586887D01*
X136960329Y-98823095D01*
X136786930Y-98378348D01*
X136782448Y-98364556D01*
X136772479Y-98326554D01*
X136577699Y-97584101D01*
X136442991Y-97070623D01*
X136440124Y-97056402D01*
X136251640Y-95732039D01*
X136250426Y-95717584D01*
X136225112Y-94750932D01*
X136215407Y-94380316D01*
X136215863Y-94365819D01*
X136274595Y-93707738D01*
X136334778Y-93033411D01*
X136336896Y-93019064D01*
X136363201Y-92892045D01*
X136608170Y-91709134D01*
X136611924Y-91695122D01*
X137031956Y-90425063D01*
X137037296Y-90411575D01*
X137600523Y-89198208D01*
X137607378Y-89185424D01*
X138306333Y-88044831D01*
X138314612Y-88032919D01*
X139140028Y-86980229D01*
X139149621Y-86969348D01*
X140090565Y-86018497D01*
X140101345Y-86008791D01*
X141145341Y-85172392D01*
X141157166Y-85163989D01*
X142290363Y-84453137D01*
X142303075Y-84446148D01*
X143510484Y-83870244D01*
X143523914Y-83864763D01*
X144482802Y-83536461D01*
X144789510Y-83431451D01*
X144803476Y-83427552D01*
X146110499Y-83142576D01*
X146124821Y-83140307D01*
X147455920Y-83007446D01*
X147470407Y-83006839D01*
X148170891Y-83017843D01*
G37*
%TD.AperFunction*%
%TD*%
M02*
