%TF.GenerationSoftware,KiCad,Pcbnew,5.99.0-1.20210313gitc119790.fc32*%
%TF.CreationDate,2021-04-11T18:30:12+02:00*%
%TF.ProjectId,led-pedestal,6c65642d-7065-4646-9573-74616c2e6b69,2*%
%TF.SameCoordinates,Original*%
%TF.FileFunction,Copper,L1,Top*%
%TF.FilePolarity,Positive*%
%FSLAX46Y46*%
G04 Gerber Fmt 4.6, Leading zero omitted, Abs format (unit mm)*
G04 Created by KiCad (PCBNEW 5.99.0-1.20210313gitc119790.fc32) date 2021-04-11 18:30:12*
%MOMM*%
%LPD*%
G01*
G04 APERTURE LIST*
G04 Aperture macros list*
%AMRoundRect*
0 Rectangle with rounded corners*
0 $1 Rounding radius*
0 $2 $3 $4 $5 $6 $7 $8 $9 X,Y pos of 4 corners*
0 Add a 4 corners polygon primitive as box body*
4,1,4,$2,$3,$4,$5,$6,$7,$8,$9,$2,$3,0*
0 Add four circle primitives for the rounded corners*
1,1,$1+$1,$2,$3*
1,1,$1+$1,$4,$5*
1,1,$1+$1,$6,$7*
1,1,$1+$1,$8,$9*
0 Add four rect primitives between the rounded corners*
20,1,$1+$1,$2,$3,$4,$5,0*
20,1,$1+$1,$4,$5,$6,$7,0*
20,1,$1+$1,$6,$7,$8,$9,0*
20,1,$1+$1,$8,$9,$2,$3,0*%
%AMHorizOval*
0 Thick line with rounded ends*
0 $1 width*
0 $2 $3 position (X,Y) of the first rounded end (center of the circle)*
0 $4 $5 position (X,Y) of the second rounded end (center of the circle)*
0 Add line between two ends*
20,1,$1,$2,$3,$4,$5,0*
0 Add two circle primitives to create the rounded ends*
1,1,$1,$2,$3*
1,1,$1,$4,$5*%
G04 Aperture macros list end*
%TA.AperFunction,SMDPad,CuDef*%
%ADD10R,1.220000X0.650000*%
%TD*%
%TA.AperFunction,SMDPad,CuDef*%
%ADD11R,1.050000X0.650000*%
%TD*%
%TA.AperFunction,SMDPad,CuDef*%
%ADD12R,1.060000X0.650000*%
%TD*%
%TA.AperFunction,SMDPad,CuDef*%
%ADD13RoundRect,0.250000X-0.337500X-0.475000X0.337500X-0.475000X0.337500X0.475000X-0.337500X0.475000X0*%
%TD*%
%TA.AperFunction,SMDPad,CuDef*%
%ADD14RoundRect,0.250000X-0.350000X-0.450000X0.350000X-0.450000X0.350000X0.450000X-0.350000X0.450000X0*%
%TD*%
%TA.AperFunction,SMDPad,CuDef*%
%ADD15R,0.900000X1.200000*%
%TD*%
%TA.AperFunction,SMDPad,CuDef*%
%ADD16R,0.900000X0.800000*%
%TD*%
%TA.AperFunction,SMDPad,CuDef*%
%ADD17RoundRect,0.250000X-0.070711X0.565685X-0.565685X0.070711X0.070711X-0.565685X0.565685X-0.070711X0*%
%TD*%
%TA.AperFunction,SMDPad,CuDef*%
%ADD18RoundRect,0.250000X0.350000X0.450000X-0.350000X0.450000X-0.350000X-0.450000X0.350000X-0.450000X0*%
%TD*%
%TA.AperFunction,SMDPad,CuDef*%
%ADD19RoundRect,0.250000X0.450000X-0.350000X0.450000X0.350000X-0.450000X0.350000X-0.450000X-0.350000X0*%
%TD*%
%TA.AperFunction,SMDPad,CuDef*%
%ADD20RoundRect,0.100000X-0.637500X-0.100000X0.637500X-0.100000X0.637500X0.100000X-0.637500X0.100000X0*%
%TD*%
%TA.AperFunction,SMDPad,CuDef*%
%ADD21HorizOval,0.800000X-0.247487X-0.247487X0.247487X0.247487X0*%
%TD*%
%TA.AperFunction,SMDPad,CuDef*%
%ADD22RoundRect,0.250000X0.337500X0.475000X-0.337500X0.475000X-0.337500X-0.475000X0.337500X-0.475000X0*%
%TD*%
%TA.AperFunction,SMDPad,CuDef*%
%ADD23R,0.450000X1.380000*%
%TD*%
%TA.AperFunction,SMDPad,CuDef*%
%ADD24R,1.000000X1.900000*%
%TD*%
%TA.AperFunction,SMDPad,CuDef*%
%ADD25R,1.425000X1.550000*%
%TD*%
%TA.AperFunction,SMDPad,CuDef*%
%ADD26R,1.650000X1.300000*%
%TD*%
%TA.AperFunction,SMDPad,CuDef*%
%ADD27R,1.800000X1.900000*%
%TD*%
%TA.AperFunction,SMDPad,CuDef*%
%ADD28R,0.650000X1.060000*%
%TD*%
%TA.AperFunction,ComponentPad*%
%ADD29R,1.800000X1.800000*%
%TD*%
%TA.AperFunction,ComponentPad*%
%ADD30C,1.800000*%
%TD*%
%TA.AperFunction,ComponentPad*%
%ADD31RoundRect,0.250000X-0.350000X-0.625000X0.350000X-0.625000X0.350000X0.625000X-0.350000X0.625000X0*%
%TD*%
%TA.AperFunction,ComponentPad*%
%ADD32O,1.200000X1.750000*%
%TD*%
%TA.AperFunction,ViaPad*%
%ADD33C,0.800000*%
%TD*%
%TA.AperFunction,Conductor*%
%ADD34C,0.250000*%
%TD*%
G04 APERTURE END LIST*
D10*
%TO.P,U1,1,~CHRG*%
%TO.N,/AN0|DAT*%
X141819000Y-89728000D03*
%TO.P,U1,2,GND*%
%TO.N,GND*%
X141819000Y-90678000D03*
%TO.P,U1,3,BAT*%
%TO.N,+BATT*%
X141819000Y-91628000D03*
%TO.P,U1,4,VCC*%
%TO.N,Net-(C6-Pad1)*%
X144439000Y-91628000D03*
%TO.P,U1,5,PROG*%
%TO.N,Net-(R1-Pad1)*%
X144439000Y-89728000D03*
%TD*%
D11*
%TO.P,SW1,1,1*%
%TO.N,Net-(C5-Pad1)*%
X150004600Y-104351400D03*
%TO.P,SW1,2,2*%
X145854600Y-104351400D03*
%TO.P,SW1,3,3*%
%TO.N,GND*%
X150004600Y-102201400D03*
%TO.P,SW1,4,4*%
X145854600Y-102201400D03*
%TD*%
D12*
%TO.P,U5,1,GP0*%
%TO.N,/AN0|DAT*%
X140190400Y-97368400D03*
%TO.P,U5,2,VSS*%
%TO.N,GND*%
X140190400Y-96418400D03*
%TO.P,U5,3,GP1*%
%TO.N,/AN1|CLK*%
X140190400Y-95468400D03*
%TO.P,U5,4,GP2*%
%TO.N,Net-(R5-Pad1)*%
X137990400Y-95468400D03*
%TO.P,U5,5,VDD*%
%TO.N,VCC*%
X137990400Y-96418400D03*
%TO.P,U5,6,GP3*%
%TO.N,/RST*%
X137990400Y-97368400D03*
%TD*%
D13*
%TO.P,C2,1*%
%TO.N,+BATT*%
X142432900Y-93599000D03*
%TO.P,C2,2*%
%TO.N,GND*%
X144507900Y-93599000D03*
%TD*%
D14*
%TO.P,R6,1*%
%TO.N,/RST*%
X143119600Y-100076000D03*
%TO.P,R6,2*%
%TO.N,Net-(C5-Pad1)*%
X145119600Y-100076000D03*
%TD*%
D15*
%TO.P,D1,1,K*%
%TO.N,Net-(D1-Pad1)*%
X146432000Y-90678000D03*
%TO.P,D1,2,A*%
%TO.N,Net-(C6-Pad1)*%
X149732000Y-90678000D03*
%TD*%
D16*
%TO.P,Q1,1,G*%
%TO.N,Net-(C6-Pad1)*%
X153559000Y-87188000D03*
%TO.P,Q1,2,S*%
%TO.N,Net-(D1-Pad1)*%
X153559000Y-89088000D03*
%TO.P,Q1,3,D*%
%TO.N,+BATT*%
X155559000Y-88138000D03*
%TD*%
D14*
%TO.P,R5,1*%
%TO.N,Net-(R5-Pad1)*%
X142510000Y-95758000D03*
%TO.P,R5,2*%
%TO.N,Net-(D2-Pad2)*%
X144510000Y-95758000D03*
%TD*%
D17*
%TO.P,R8,1*%
%TO.N,GND*%
X156256707Y-101654893D03*
%TO.P,R8,2*%
%TO.N,/AN1|CLK*%
X154842493Y-103069107D03*
%TD*%
D16*
%TO.P,U4,1,GND*%
%TO.N,GND*%
X138065000Y-89829600D03*
%TO.P,U4,2,VO*%
%TO.N,VCC*%
X138065000Y-91729600D03*
%TO.P,U4,3,VI*%
%TO.N,Net-(D1-Pad1)*%
X140065000Y-90779600D03*
%TD*%
D18*
%TO.P,R4,1*%
%TO.N,VCC*%
X144510000Y-98044000D03*
%TO.P,R4,2*%
%TO.N,/AN0|DAT*%
X142510000Y-98044000D03*
%TD*%
D19*
%TO.P,R1,1*%
%TO.N,Net-(R1-Pad1)*%
X142113000Y-87926000D03*
%TO.P,R1,2*%
%TO.N,GND*%
X142113000Y-85926000D03*
%TD*%
D20*
%TO.P,U2,1,D12*%
%TO.N,unconnected-(U2-Pad1)*%
X151696500Y-96815000D03*
%TO.P,U2,2,S1*%
%TO.N,Net-(BT1-Pad1)*%
X151696500Y-97465000D03*
%TO.P,U2,3,S1*%
X151696500Y-98115000D03*
%TO.P,U2,4,G1*%
%TO.N,Net-(U2-Pad4)*%
X151696500Y-98765000D03*
%TO.P,U2,5,G2*%
%TO.N,Net-(U2-Pad5)*%
X157421500Y-98765000D03*
%TO.P,U2,6,S2*%
%TO.N,GND*%
X157421500Y-98115000D03*
%TO.P,U2,7,S2*%
X157421500Y-97465000D03*
%TO.P,U2,8,D12*%
%TO.N,unconnected-(U2-Pad8)*%
X157421500Y-96815000D03*
%TD*%
D21*
%TO.P,J2,1,Pin_1*%
%TO.N,/AN0|DAT*%
X142085369Y-103305708D03*
%TO.P,J2,2,Pin_2*%
%TO.N,GND*%
X141187343Y-102407683D03*
%TO.P,J2,3,Pin_3*%
X140289317Y-101509657D03*
%TO.P,J2,4,Pin_4*%
%TO.N,/AN1|CLK*%
X139391292Y-100611631D03*
%TD*%
D19*
%TO.P,R2,1*%
%TO.N,Net-(C1-Pad1)*%
X157480000Y-94980000D03*
%TO.P,R2,2*%
%TO.N,+BATT*%
X157480000Y-92980000D03*
%TD*%
D22*
%TO.P,C1,1*%
%TO.N,Net-(C1-Pad1)*%
X157603100Y-90932000D03*
%TO.P,C1,2*%
%TO.N,Net-(BT1-Pad1)*%
X155528100Y-90932000D03*
%TD*%
D23*
%TO.P,J1,1,VBUS*%
%TO.N,Net-(C6-Pad1)*%
X149255000Y-87630000D03*
%TO.P,J1,2,D-*%
%TO.N,unconnected-(J1-Pad2)*%
X148605000Y-87630000D03*
%TO.P,J1,3,D+*%
%TO.N,unconnected-(J1-Pad3)*%
X147955000Y-87630000D03*
%TO.P,J1,4,ID*%
%TO.N,unconnected-(J1-Pad4)*%
X147305000Y-87630000D03*
%TO.P,J1,5,GND*%
%TO.N,GND*%
X146655000Y-87630000D03*
D24*
%TO.P,J1,6,Shield*%
X146405000Y-84970000D03*
D25*
X150442500Y-87545000D03*
D26*
X144580000Y-84970000D03*
X151330000Y-84970000D03*
D27*
X149105000Y-84970000D03*
D25*
X145467500Y-87545000D03*
%TD*%
D13*
%TO.P,C6,1*%
%TO.N,Net-(C6-Pad1)*%
X151667300Y-90932000D03*
%TO.P,C6,2*%
%TO.N,GND*%
X153742300Y-90932000D03*
%TD*%
D28*
%TO.P,U3,1,OD*%
%TO.N,Net-(U2-Pad4)*%
X153609000Y-95080000D03*
%TO.P,U3,2,CSI*%
%TO.N,Net-(R3-Pad1)*%
X154559000Y-95080000D03*
%TO.P,U3,3,OC*%
%TO.N,Net-(U2-Pad5)*%
X155509000Y-95080000D03*
%TO.P,U3,4,NC*%
%TO.N,unconnected-(U3-Pad4)*%
X155509000Y-92880000D03*
%TO.P,U3,5,VCC*%
%TO.N,Net-(C1-Pad1)*%
X154559000Y-92880000D03*
%TO.P,U3,6,VSS*%
%TO.N,Net-(BT1-Pad1)*%
X153609000Y-92880000D03*
%TD*%
D19*
%TO.P,R9,1*%
%TO.N,Net-(JP1-Pad2)*%
X152146000Y-104606600D03*
%TO.P,R9,2*%
%TO.N,/AN1|CLK*%
X152146000Y-102606600D03*
%TD*%
D14*
%TO.P,R7,1*%
%TO.N,Net-(C5-Pad1)*%
X146955000Y-98044000D03*
%TO.P,R7,2*%
%TO.N,VCC*%
X148955000Y-98044000D03*
%TD*%
D19*
%TO.P,R3,1*%
%TO.N,Net-(R3-Pad1)*%
X151638000Y-94980000D03*
%TO.P,R3,2*%
%TO.N,GND*%
X151638000Y-92980000D03*
%TD*%
D13*
%TO.P,C5,1*%
%TO.N,Net-(C5-Pad1)*%
X146917500Y-100076000D03*
%TO.P,C5,2*%
%TO.N,GND*%
X148992500Y-100076000D03*
%TD*%
D29*
%TO.P,D2,1,K*%
%TO.N,GND*%
X149225000Y-94743000D03*
D30*
%TO.P,D2,2,A*%
%TO.N,Net-(D2-Pad2)*%
X146685000Y-94743000D03*
%TD*%
D13*
%TO.P,C4,1*%
%TO.N,VCC*%
X138027500Y-93573600D03*
%TO.P,C4,2*%
%TO.N,GND*%
X140102500Y-93573600D03*
%TD*%
D31*
%TO.P,BT1,1,Pin_1*%
%TO.N,Net-(BT1-Pad1)*%
X152400000Y-100584000D03*
D32*
%TO.P,BT1,2,Pin_2*%
%TO.N,+BATT*%
X154400000Y-100584000D03*
%TD*%
D33*
%TO.N,+BATT*%
X142485000Y-92447000D03*
X156565600Y-88646000D03*
%TO.N,GND*%
X147218400Y-92202000D03*
X140300000Y-101500000D03*
X138379200Y-89001600D03*
X150368000Y-100838000D03*
X153568400Y-85902800D03*
X155803600Y-97790000D03*
X143764000Y-88138000D03*
X143764000Y-86995000D03*
X146812000Y-102209600D03*
X141200000Y-102400000D03*
X142658000Y-90678000D03*
X139141200Y-96418400D03*
X156260800Y-99923600D03*
X139496800Y-92354400D03*
%TO.N,/AN1|CLK*%
X138734800Y-99263200D03*
X141325600Y-96901000D03*
%TO.N,VCC*%
X140462000Y-87884000D03*
X148996400Y-96926400D03*
X145745200Y-98044000D03*
%TO.N,/RST*%
X143510000Y-101854000D03*
%TO.N,/AN0|DAT*%
X141325600Y-98044000D03*
X140462000Y-89712800D03*
%TO.N,Net-(JP1-Pad2)*%
X147878800Y-105003600D03*
%TD*%
D34*
%TO.N,+BATT*%
X142485000Y-92447000D02*
X142485000Y-92294000D01*
X155559000Y-88138000D02*
X156057600Y-88138000D01*
X142485000Y-92294000D02*
X141819000Y-91628000D01*
X142485000Y-93546900D02*
X142485000Y-92447000D01*
X156565600Y-88646000D02*
X156565600Y-92065600D01*
X142432900Y-93599000D02*
X142485000Y-93546900D01*
X156565600Y-92065600D02*
X157480000Y-92980000D01*
X156057600Y-88138000D02*
X156565600Y-88646000D01*
%TO.N,Net-(BT1-Pad1)*%
X155528100Y-90932000D02*
X155528100Y-91258300D01*
X151574500Y-100584000D02*
X152400000Y-100584000D01*
X153093600Y-92880000D02*
X153609000Y-92880000D01*
X150495000Y-94361000D02*
X150876000Y-93980000D01*
X150495000Y-98323400D02*
X150495000Y-99504500D01*
X152501600Y-93980000D02*
X152806400Y-93675200D01*
X155528100Y-91258300D02*
X154787600Y-91998800D01*
X151696500Y-97465000D02*
X150703400Y-97465000D01*
X151696500Y-98115000D02*
X150703400Y-98115000D01*
X150703400Y-97465000D02*
X150495000Y-97256600D01*
X154787600Y-91998800D02*
X153935883Y-91998800D01*
X150495000Y-97256600D02*
X150495000Y-94361000D01*
X153935883Y-91998800D02*
X153609000Y-92325683D01*
X150495000Y-99504500D02*
X151574500Y-100584000D01*
X152806400Y-93675200D02*
X152806400Y-93167200D01*
X150876000Y-93980000D02*
X152501600Y-93980000D01*
X150474800Y-97693600D02*
X150474800Y-97886400D01*
X150703400Y-98115000D02*
X150495000Y-98323400D01*
X153609000Y-92325683D02*
X153609000Y-92880000D01*
X150474800Y-97886400D02*
X150703400Y-98115000D01*
X152806400Y-93167200D02*
X153093600Y-92880000D01*
X150703400Y-97465000D02*
X150474800Y-97693600D01*
%TO.N,Net-(C1-Pad1)*%
X158597600Y-91939000D02*
X157590600Y-90932000D01*
X158597600Y-94538800D02*
X158597600Y-91939000D01*
X158131400Y-95005000D02*
X158597600Y-94538800D01*
X156121100Y-93980000D02*
X157146100Y-95005000D01*
X155041600Y-93980000D02*
X156121100Y-93980000D01*
X157146100Y-95005000D02*
X158131400Y-95005000D01*
X154559000Y-92880000D02*
X154559000Y-93497400D01*
X154559000Y-93497400D02*
X155041600Y-93980000D01*
%TO.N,GND*%
X147218400Y-92202000D02*
X145821400Y-93599000D01*
X153742300Y-90656500D02*
X154533600Y-89865200D01*
X157421500Y-98115000D02*
X156128600Y-98115000D01*
X150004600Y-101201400D02*
X150368000Y-100838000D01*
X144917500Y-86995000D02*
X143764000Y-86995000D01*
X140300000Y-101500000D02*
X140300000Y-101520340D01*
X156274384Y-99937184D02*
X156260800Y-99923600D01*
X140090000Y-93599000D02*
X140090000Y-92947600D01*
X140090000Y-92947600D02*
X139496800Y-92354400D01*
X145821400Y-93599000D02*
X144507900Y-93599000D01*
X146655000Y-87630000D02*
X145552500Y-87630000D01*
X144580000Y-84970000D02*
X146405000Y-84970000D01*
X138379200Y-89540800D02*
X138379200Y-89001600D01*
X144874500Y-88138000D02*
X143764000Y-88138000D01*
X141819000Y-90678000D02*
X142658000Y-90678000D01*
X156128600Y-98115000D02*
X155803600Y-97790000D01*
X156128600Y-97465000D02*
X155803600Y-97790000D01*
X144507900Y-93599000D02*
X144535000Y-93599000D01*
X138065000Y-89855000D02*
X138379200Y-89540800D01*
X155811300Y-97782300D02*
X155803600Y-97790000D01*
X157421500Y-97465000D02*
X156128600Y-97465000D01*
X145552500Y-87630000D02*
X145467500Y-87545000D01*
X150004600Y-102201400D02*
X150004600Y-101201400D01*
X145467500Y-85857500D02*
X144580000Y-84970000D01*
X143764000Y-86512400D02*
X143152600Y-85901000D01*
X153742300Y-90932000D02*
X153742300Y-90656500D01*
X153742300Y-90707300D02*
X153742300Y-90932000D01*
X151330000Y-84970000D02*
X149105000Y-84970000D01*
X154533600Y-89865200D02*
X154533600Y-86614000D01*
X146812000Y-102209600D02*
X145862800Y-102209600D01*
X143764000Y-86995000D02*
X143764000Y-86512400D01*
X151638000Y-92955000D02*
X147971400Y-92955000D01*
X145467500Y-87545000D02*
X144917500Y-86995000D01*
X156274384Y-101637216D02*
X156274384Y-99937184D01*
X150442500Y-87545000D02*
X151330000Y-86657500D01*
X145467500Y-87545000D02*
X145467500Y-85857500D01*
X147971400Y-92955000D02*
X147218400Y-92202000D01*
X153822400Y-85902800D02*
X153568400Y-85902800D01*
X149105000Y-84970000D02*
X146405000Y-84970000D01*
X149606000Y-100076000D02*
X150368000Y-100838000D01*
X154533600Y-86614000D02*
X153822400Y-85902800D01*
X145467500Y-87545000D02*
X144874500Y-88138000D01*
X151330000Y-86657500D02*
X151330000Y-84970000D01*
X143152600Y-85901000D02*
X142113000Y-85901000D01*
X145862800Y-102209600D02*
X145854600Y-102201400D01*
X140190400Y-96418400D02*
X139141200Y-96418400D01*
X148980000Y-100076000D02*
X149606000Y-100076000D01*
%TO.N,/AN1|CLK*%
X154344632Y-102606600D02*
X152146000Y-102606600D01*
X151882600Y-102870000D02*
X149225000Y-102870000D01*
X141325600Y-96238966D02*
X140555034Y-95468400D01*
X138734800Y-99955139D02*
X138734800Y-99263200D01*
X141325600Y-96240600D02*
X141325600Y-96238966D01*
X152146000Y-102606600D02*
X151882600Y-102870000D01*
X147955000Y-97307400D02*
X147548600Y-96901000D01*
X154824816Y-103086784D02*
X154344632Y-102606600D01*
X141325600Y-96901000D02*
X141325600Y-96240600D01*
X147955000Y-101600000D02*
X147955000Y-97307400D01*
X147548600Y-96901000D02*
X141325600Y-96901000D01*
X139391292Y-100611631D02*
X138734800Y-99955139D01*
X140555034Y-95468400D02*
X140190400Y-95468400D01*
X149225000Y-102870000D02*
X147955000Y-101600000D01*
%TO.N,VCC*%
X138027500Y-93573600D02*
X138065000Y-93536100D01*
X138065000Y-91729600D02*
X138597600Y-91729600D01*
X137160000Y-96418400D02*
X136906000Y-96164400D01*
X145745200Y-98044000D02*
X144510000Y-98044000D01*
X136906000Y-93878400D02*
X137210800Y-93573600D01*
X148996400Y-98002600D02*
X148955000Y-98044000D01*
X136906000Y-96164400D02*
X136906000Y-93878400D01*
X138597600Y-91729600D02*
X139090400Y-91236800D01*
X137990400Y-96418400D02*
X137160000Y-96418400D01*
X148996400Y-96926400D02*
X148996400Y-98002600D01*
X138065000Y-93536100D02*
X138065000Y-91729600D01*
X139090400Y-91236800D02*
X139090400Y-89255600D01*
X137210800Y-93573600D02*
X138027500Y-93573600D01*
X139090400Y-89255600D02*
X140462000Y-87884000D01*
%TO.N,Net-(C5-Pad1)*%
X145499400Y-104351400D02*
X144932400Y-103784400D01*
X145939000Y-104267000D02*
X145854600Y-104351400D01*
X145854600Y-104351400D02*
X145499400Y-104351400D01*
X144932400Y-103784400D02*
X144932400Y-100263200D01*
X149920200Y-104267000D02*
X145939000Y-104267000D01*
X150004600Y-104351400D02*
X149920200Y-104267000D01*
X144932400Y-100263200D02*
X145119600Y-100076000D01*
X146955000Y-100038500D02*
X146917500Y-100076000D01*
X146917500Y-100076000D02*
X145119600Y-100076000D01*
X146955000Y-98044000D02*
X146955000Y-100038500D01*
%TO.N,Net-(C6-Pad1)*%
X144846000Y-91628000D02*
X144439000Y-91628000D01*
X149250400Y-89408000D02*
X148869400Y-89027000D01*
X149255000Y-88641400D02*
X148869400Y-89027000D01*
X145491200Y-90982800D02*
X144846000Y-91628000D01*
X146050000Y-89027000D02*
X145491200Y-89585800D01*
X149250400Y-90068400D02*
X149250400Y-89408000D01*
X149255000Y-87630000D02*
X149255000Y-88641400D01*
X149631400Y-89017800D02*
X149631400Y-89027000D01*
X149732000Y-90678000D02*
X149732000Y-90550000D01*
X149732000Y-90678000D02*
X151413300Y-90678000D01*
X151413300Y-90678000D02*
X151667300Y-90932000D01*
X149636000Y-89022400D02*
X149250400Y-89408000D01*
X151720000Y-89027000D02*
X149631400Y-89027000D01*
X149631400Y-89027000D02*
X149250400Y-88646000D01*
X153559000Y-87188000D02*
X151720000Y-89027000D01*
X148869400Y-89027000D02*
X146050000Y-89027000D01*
X149732000Y-90550000D02*
X149250400Y-90068400D01*
X145491200Y-89585800D02*
X145491200Y-90982800D01*
%TO.N,Net-(D1-Pad1)*%
X143645398Y-92354400D02*
X143408400Y-92117402D01*
X146432000Y-90678000D02*
X147320000Y-90678000D01*
X139598400Y-90313000D02*
X140065000Y-90779600D01*
X143408400Y-92117402D02*
X143408400Y-89797398D01*
X146432000Y-91693000D02*
X145770600Y-92354400D01*
X142598801Y-88987799D02*
X140113999Y-88987799D01*
X139598400Y-89503398D02*
X139598400Y-90313000D01*
X152704800Y-89942200D02*
X153559000Y-89088000D01*
X152704800Y-91643200D02*
X152704800Y-89942200D01*
X145770600Y-92354400D02*
X143645398Y-92354400D01*
X140113999Y-88987799D02*
X139598400Y-89503398D01*
X143408400Y-89797398D02*
X142598801Y-88987799D01*
X148640800Y-91998800D02*
X152349200Y-91998800D01*
X147320000Y-90678000D02*
X148640800Y-91998800D01*
X146432000Y-90678000D02*
X146432000Y-91693000D01*
X152349200Y-91998800D02*
X152704800Y-91643200D01*
%TO.N,Net-(D2-Pad2)*%
X145670000Y-95758000D02*
X144535000Y-95758000D01*
X146685000Y-94743000D02*
X145670000Y-95758000D01*
%TO.N,/RST*%
X138379200Y-98348800D02*
X140258800Y-98348800D01*
X143119600Y-101463600D02*
X143119600Y-100076000D01*
X137990400Y-97960000D02*
X138379200Y-98348800D01*
X141986000Y-100076000D02*
X143119600Y-100076000D01*
X137990400Y-97368400D02*
X137990400Y-97960000D01*
X143510000Y-101854000D02*
X143119600Y-101463600D01*
X140258800Y-98348800D02*
X141986000Y-100076000D01*
%TO.N,/AN0|DAT*%
X142818061Y-104038400D02*
X142085369Y-103305708D01*
X143306800Y-99009200D02*
X143713200Y-99009200D01*
X140919200Y-98044000D02*
X142510000Y-98044000D01*
X141803800Y-89712800D02*
X141819000Y-89728000D01*
X140190400Y-97368400D02*
X140243600Y-97368400D01*
X143713200Y-99009200D02*
X144119600Y-99415600D01*
X144424400Y-101447600D02*
X144424400Y-103276400D01*
X144119600Y-101142800D02*
X144424400Y-101447600D01*
X143662400Y-104038400D02*
X142818061Y-104038400D01*
X144424400Y-103276400D02*
X143662400Y-104038400D01*
X142510000Y-98212400D02*
X143306800Y-99009200D01*
X144119600Y-99415600D02*
X144119600Y-101142800D01*
X140462000Y-89712800D02*
X141803800Y-89712800D01*
X142510000Y-98044000D02*
X142510000Y-98212400D01*
X140462000Y-89772906D02*
X140447053Y-89787853D01*
X140243600Y-97368400D02*
X140919200Y-98044000D01*
%TO.N,Net-(R1-Pad1)*%
X144134800Y-89728000D02*
X144439000Y-89728000D01*
X142357800Y-87951000D02*
X144134800Y-89728000D01*
X142113000Y-87951000D02*
X142357800Y-87951000D01*
%TO.N,Net-(R3-Pad1)*%
X154178000Y-93980000D02*
X154559000Y-94361000D01*
X151638000Y-95005000D02*
X152289400Y-95005000D01*
X154559000Y-94361000D02*
X154559000Y-95080000D01*
X152289400Y-95005000D02*
X153314400Y-93980000D01*
X153314400Y-93980000D02*
X154178000Y-93980000D01*
%TO.N,Net-(R5-Pad1)*%
X138760200Y-94742000D02*
X138033800Y-95468400D01*
X142485000Y-95758000D02*
X141469000Y-94742000D01*
X142485000Y-96012000D02*
X142485000Y-95758000D01*
X141469000Y-94742000D02*
X138760200Y-94742000D01*
X138033800Y-95468400D02*
X137990400Y-95468400D01*
%TO.N,Net-(U2-Pad5)*%
X154940000Y-97205010D02*
X155509000Y-96636010D01*
X155509000Y-96636010D02*
X155509000Y-95080000D01*
X157421500Y-98765000D02*
X155280000Y-98765000D01*
X155280000Y-98765000D02*
X154940000Y-98425000D01*
X154940000Y-98425000D02*
X154940000Y-97205010D01*
%TO.N,Net-(U2-Pad4)*%
X153203000Y-98765000D02*
X153609000Y-98359000D01*
X151696500Y-98765000D02*
X153203000Y-98765000D01*
X153609000Y-98359000D02*
X153609000Y-95080000D01*
%TO.N,Net-(JP1-Pad2)*%
X147880989Y-105001411D02*
X147878800Y-105003600D01*
X152146000Y-104606600D02*
X151751189Y-105001411D01*
X151751189Y-105001411D02*
X147880989Y-105001411D01*
X152146000Y-104606600D02*
X151850600Y-104902000D01*
%TD*%
%TA.AperFunction,Conductor*%
%TO.N,GND*%
G36*
X148170891Y-83017843D02*
G01*
X148807960Y-83027851D01*
X148822427Y-83028913D01*
X150148703Y-83203521D01*
X150162952Y-83206239D01*
X151460352Y-83532123D01*
X151474195Y-83536461D01*
X152223120Y-83819457D01*
X152279773Y-83862247D01*
X152301212Y-83920488D01*
X152347155Y-83892108D01*
X152418140Y-83893374D01*
X152425029Y-83895752D01*
X152464231Y-83910565D01*
X152725570Y-84009317D01*
X152738803Y-84015209D01*
X153927536Y-84628759D01*
X153940014Y-84636139D01*
X154937557Y-85306459D01*
X155050340Y-85382246D01*
X155061891Y-85391014D01*
X155088213Y-85413495D01*
X155127022Y-85472944D01*
X155127530Y-85543939D01*
X155096091Y-85597785D01*
X154198073Y-86508275D01*
X154135997Y-86542729D01*
X154083784Y-86543375D01*
X154015068Y-86529707D01*
X154009000Y-86528500D01*
X153109000Y-86528500D01*
X153009694Y-86548253D01*
X152925506Y-86604506D01*
X152869253Y-86688694D01*
X152849500Y-86788000D01*
X152849500Y-87308616D01*
X152829498Y-87376737D01*
X152812595Y-87397711D01*
X151599710Y-88610595D01*
X151537398Y-88644621D01*
X151510615Y-88647500D01*
X151477413Y-88647500D01*
X151409292Y-88627498D01*
X151362799Y-88573842D01*
X151352695Y-88503568D01*
X151372647Y-88451500D01*
X151387389Y-88429437D01*
X151396706Y-88406943D01*
X151412793Y-88326068D01*
X151414000Y-88313813D01*
X151414000Y-87817115D01*
X151409525Y-87801876D01*
X151408135Y-87800671D01*
X151400452Y-87799000D01*
X150314500Y-87799000D01*
X150246379Y-87778998D01*
X150199886Y-87725342D01*
X150188500Y-87673000D01*
X150188500Y-86529115D01*
X150187159Y-86524548D01*
X150696500Y-86524548D01*
X150696500Y-87272885D01*
X150700975Y-87288124D01*
X150702365Y-87289329D01*
X150710048Y-87291000D01*
X151395885Y-87291000D01*
X151411124Y-87286525D01*
X151412329Y-87285135D01*
X151414000Y-87277452D01*
X151414000Y-86776187D01*
X151412793Y-86763932D01*
X151396706Y-86683057D01*
X151387390Y-86660565D01*
X151345034Y-86597175D01*
X151327825Y-86579966D01*
X151264435Y-86537610D01*
X151241943Y-86528294D01*
X151161068Y-86512207D01*
X151148813Y-86511000D01*
X150714615Y-86511000D01*
X150699376Y-86515475D01*
X150698171Y-86516865D01*
X150696500Y-86524548D01*
X150187159Y-86524548D01*
X150184025Y-86513876D01*
X150182635Y-86512671D01*
X150174952Y-86511000D01*
X149736187Y-86511000D01*
X149723932Y-86512207D01*
X149643057Y-86528294D01*
X149620565Y-86537610D01*
X149557175Y-86579966D01*
X149539964Y-86597177D01*
X149521707Y-86624501D01*
X149467231Y-86670029D01*
X149416942Y-86680500D01*
X149030000Y-86680500D01*
X148954579Y-86695502D01*
X148905421Y-86695502D01*
X148830000Y-86680500D01*
X148380000Y-86680500D01*
X148304579Y-86695502D01*
X148255421Y-86695502D01*
X148180000Y-86680500D01*
X147730000Y-86680500D01*
X147654579Y-86695502D01*
X147605421Y-86695502D01*
X147530000Y-86680500D01*
X147080000Y-86680500D01*
X147003322Y-86695752D01*
X146954161Y-86695752D01*
X146897769Y-86684535D01*
X146884894Y-86685687D01*
X146880000Y-86700840D01*
X146880000Y-86742987D01*
X146858765Y-86812989D01*
X146840253Y-86840694D01*
X146820500Y-86940000D01*
X146820500Y-87729000D01*
X146800498Y-87797121D01*
X146746842Y-87843614D01*
X146694500Y-87855000D01*
X146239830Y-87855000D01*
X146171709Y-87834998D01*
X146157318Y-87824225D01*
X146130135Y-87800671D01*
X146122452Y-87799000D01*
X145739615Y-87799000D01*
X145724376Y-87803475D01*
X145723171Y-87804865D01*
X145721500Y-87812548D01*
X145721500Y-88560885D01*
X145725975Y-88576124D01*
X145751318Y-88598084D01*
X145789703Y-88657809D01*
X145789704Y-88728806D01*
X145757902Y-88782404D01*
X145488029Y-89052277D01*
X145425718Y-89086302D01*
X145399677Y-89089178D01*
X144742400Y-89093022D01*
X144093242Y-89096818D01*
X144025005Y-89077214D01*
X144003409Y-89059915D01*
X143740995Y-88797500D01*
X143104404Y-88160909D01*
X143070379Y-88098597D01*
X143067500Y-88071814D01*
X143067500Y-87812548D01*
X144496000Y-87812548D01*
X144496000Y-88313813D01*
X144497207Y-88326068D01*
X144513294Y-88406943D01*
X144522610Y-88429435D01*
X144564966Y-88492825D01*
X144582175Y-88510034D01*
X144645565Y-88552390D01*
X144668057Y-88561706D01*
X144748932Y-88577793D01*
X144761187Y-88579000D01*
X145195385Y-88579000D01*
X145210624Y-88574525D01*
X145211829Y-88573135D01*
X145213500Y-88565452D01*
X145213500Y-87817115D01*
X145209025Y-87801876D01*
X145207635Y-87800671D01*
X145199952Y-87799000D01*
X144514115Y-87799000D01*
X144498876Y-87803475D01*
X144497671Y-87804865D01*
X144496000Y-87812548D01*
X143067500Y-87812548D01*
X143067500Y-87541086D01*
X143052021Y-87433000D01*
X142992229Y-87301496D01*
X142897933Y-87192059D01*
X142776711Y-87113487D01*
X142679793Y-87084502D01*
X142644850Y-87074052D01*
X142644848Y-87074052D01*
X142638309Y-87072096D01*
X142630288Y-87071500D01*
X142018362Y-87071500D01*
X141950241Y-87051498D01*
X141906652Y-87003783D01*
X141852984Y-86900919D01*
X141839208Y-86831272D01*
X141850858Y-86803882D01*
X141859000Y-86766452D01*
X141859000Y-86193548D01*
X142367000Y-86193548D01*
X142367000Y-86761885D01*
X142371475Y-86777124D01*
X142372865Y-86778329D01*
X142380548Y-86780000D01*
X142593432Y-86780000D01*
X142602352Y-86779364D01*
X142624536Y-86776187D01*
X144496000Y-86776187D01*
X144496000Y-87272885D01*
X144500475Y-87288124D01*
X144501865Y-87289329D01*
X144509548Y-87291000D01*
X145195385Y-87291000D01*
X145210624Y-87286525D01*
X145211829Y-87285135D01*
X145213500Y-87277452D01*
X145213500Y-86529115D01*
X145212159Y-86524548D01*
X145721500Y-86524548D01*
X145721500Y-87272885D01*
X145725975Y-87288124D01*
X145727365Y-87289329D01*
X145735048Y-87291000D01*
X146411885Y-87291000D01*
X146427124Y-87286525D01*
X146428329Y-87285135D01*
X146430000Y-87277452D01*
X146430000Y-86699115D01*
X146421313Y-86669530D01*
X146419285Y-86670885D01*
X146370034Y-86597175D01*
X146352825Y-86579966D01*
X146289435Y-86537610D01*
X146266943Y-86528294D01*
X146186068Y-86512207D01*
X146173813Y-86511000D01*
X145739615Y-86511000D01*
X145724376Y-86515475D01*
X145723171Y-86516865D01*
X145721500Y-86524548D01*
X145212159Y-86524548D01*
X145209025Y-86513876D01*
X145207635Y-86512671D01*
X145199952Y-86511000D01*
X144761187Y-86511000D01*
X144748932Y-86512207D01*
X144668057Y-86528294D01*
X144645565Y-86537610D01*
X144582175Y-86579966D01*
X144564966Y-86597175D01*
X144522610Y-86660565D01*
X144513294Y-86683057D01*
X144497207Y-86763932D01*
X144496000Y-86776187D01*
X142624536Y-86776187D01*
X142696969Y-86765814D01*
X142714031Y-86760825D01*
X142829068Y-86708521D01*
X142844030Y-86698952D01*
X142939764Y-86616464D01*
X142951447Y-86603070D01*
X143020173Y-86497039D01*
X143027632Y-86480896D01*
X143064455Y-86357769D01*
X143066859Y-86344735D01*
X143067000Y-86340938D01*
X143067000Y-86198115D01*
X143062525Y-86182876D01*
X143061135Y-86181671D01*
X143053452Y-86180000D01*
X142385115Y-86180000D01*
X142369876Y-86184475D01*
X142368671Y-86185865D01*
X142367000Y-86193548D01*
X141859000Y-86193548D01*
X141859000Y-85090115D01*
X141857659Y-85085548D01*
X142367000Y-85085548D01*
X142367000Y-85653885D01*
X142371475Y-85669124D01*
X142372865Y-85670329D01*
X142380548Y-85672000D01*
X143048885Y-85672000D01*
X143064124Y-85667525D01*
X143065329Y-85666135D01*
X143067000Y-85658452D01*
X143067000Y-85545568D01*
X143066364Y-85536648D01*
X143052814Y-85442031D01*
X143047825Y-85424969D01*
X142995521Y-85309932D01*
X142985952Y-85294970D01*
X142936475Y-85237548D01*
X143496000Y-85237548D01*
X143496000Y-85613813D01*
X143497207Y-85626068D01*
X143513294Y-85706943D01*
X143522610Y-85729435D01*
X143564966Y-85792825D01*
X143582175Y-85810034D01*
X143645565Y-85852390D01*
X143668057Y-85861706D01*
X143748932Y-85877793D01*
X143761187Y-85879000D01*
X144307885Y-85879000D01*
X144323124Y-85874525D01*
X144324329Y-85873135D01*
X144326000Y-85865452D01*
X144326000Y-85242115D01*
X144324659Y-85237548D01*
X144834000Y-85237548D01*
X144834000Y-85860885D01*
X144838475Y-85876124D01*
X144839865Y-85877329D01*
X144847548Y-85879000D01*
X145398813Y-85879000D01*
X145411068Y-85877793D01*
X145504115Y-85859285D01*
X145504943Y-85863447D01*
X145552288Y-85858350D01*
X145615780Y-85890120D01*
X145653513Y-85957770D01*
X145663294Y-86006943D01*
X145672610Y-86029435D01*
X145714966Y-86092825D01*
X145732175Y-86110034D01*
X145795565Y-86152390D01*
X145818057Y-86161706D01*
X145898932Y-86177793D01*
X145911187Y-86179000D01*
X146132885Y-86179000D01*
X146148124Y-86174525D01*
X146149329Y-86173135D01*
X146151000Y-86165452D01*
X146151000Y-85242115D01*
X146149659Y-85237548D01*
X146659000Y-85237548D01*
X146659000Y-86160885D01*
X146663475Y-86176124D01*
X146664865Y-86177329D01*
X146672548Y-86179000D01*
X146898813Y-86179000D01*
X146911068Y-86177793D01*
X146991943Y-86161706D01*
X147014435Y-86152390D01*
X147077825Y-86110034D01*
X147095034Y-86092825D01*
X147137390Y-86029435D01*
X147146706Y-86006943D01*
X147162793Y-85926068D01*
X147164000Y-85913813D01*
X147164000Y-85242115D01*
X147162659Y-85237548D01*
X147946000Y-85237548D01*
X147946000Y-85913813D01*
X147947207Y-85926068D01*
X147963294Y-86006943D01*
X147972610Y-86029435D01*
X148014966Y-86092825D01*
X148032175Y-86110034D01*
X148095565Y-86152390D01*
X148118057Y-86161706D01*
X148198932Y-86177793D01*
X148211187Y-86179000D01*
X148832885Y-86179000D01*
X148848124Y-86174525D01*
X148849329Y-86173135D01*
X148851000Y-86165452D01*
X148851000Y-85242115D01*
X148849659Y-85237548D01*
X149359000Y-85237548D01*
X149359000Y-86160885D01*
X149363475Y-86176124D01*
X149364865Y-86177329D01*
X149372548Y-86179000D01*
X149998813Y-86179000D01*
X150011068Y-86177793D01*
X150091943Y-86161706D01*
X150114435Y-86152390D01*
X150177825Y-86110034D01*
X150195034Y-86092825D01*
X150237390Y-86029435D01*
X150246706Y-86006943D01*
X150256487Y-85957770D01*
X150289394Y-85894860D01*
X150351089Y-85859728D01*
X150404934Y-85864066D01*
X150405885Y-85859285D01*
X150498932Y-85877793D01*
X150511187Y-85879000D01*
X151057885Y-85879000D01*
X151073124Y-85874525D01*
X151074329Y-85873135D01*
X151076000Y-85865452D01*
X151076000Y-85242115D01*
X151074659Y-85237548D01*
X151584000Y-85237548D01*
X151584000Y-85860885D01*
X151588475Y-85876124D01*
X151589865Y-85877329D01*
X151597548Y-85879000D01*
X152148813Y-85879000D01*
X152161068Y-85877793D01*
X152241943Y-85861706D01*
X152264435Y-85852390D01*
X152327825Y-85810034D01*
X152345034Y-85792825D01*
X152387390Y-85729435D01*
X152396706Y-85706943D01*
X152412793Y-85626068D01*
X152414000Y-85613813D01*
X152414000Y-85242115D01*
X152409525Y-85226876D01*
X152408135Y-85225671D01*
X152400452Y-85224000D01*
X151602115Y-85224000D01*
X151586876Y-85228475D01*
X151585671Y-85229865D01*
X151584000Y-85237548D01*
X151074659Y-85237548D01*
X151071525Y-85226876D01*
X151070135Y-85225671D01*
X151062452Y-85224000D01*
X149377115Y-85224000D01*
X149361876Y-85228475D01*
X149360671Y-85229865D01*
X149359000Y-85237548D01*
X148849659Y-85237548D01*
X148846525Y-85226876D01*
X148845135Y-85225671D01*
X148837452Y-85224000D01*
X147964115Y-85224000D01*
X147948876Y-85228475D01*
X147947671Y-85229865D01*
X147946000Y-85237548D01*
X147162659Y-85237548D01*
X147159525Y-85226876D01*
X147158135Y-85225671D01*
X147150452Y-85224000D01*
X146677115Y-85224000D01*
X146661876Y-85228475D01*
X146660671Y-85229865D01*
X146659000Y-85237548D01*
X146149659Y-85237548D01*
X146146525Y-85226876D01*
X146145135Y-85225671D01*
X146137452Y-85224000D01*
X144852115Y-85224000D01*
X144836876Y-85228475D01*
X144835671Y-85229865D01*
X144834000Y-85237548D01*
X144324659Y-85237548D01*
X144321525Y-85226876D01*
X144320135Y-85225671D01*
X144312452Y-85224000D01*
X143514115Y-85224000D01*
X143498876Y-85228475D01*
X143497671Y-85229865D01*
X143496000Y-85237548D01*
X142936475Y-85237548D01*
X142903464Y-85199236D01*
X142890070Y-85187553D01*
X142784039Y-85118827D01*
X142767896Y-85111368D01*
X142644769Y-85074545D01*
X142631735Y-85072141D01*
X142627938Y-85072000D01*
X142385115Y-85072000D01*
X142369876Y-85076475D01*
X142368671Y-85077865D01*
X142367000Y-85085548D01*
X141857659Y-85085548D01*
X141854525Y-85074876D01*
X141853135Y-85073671D01*
X141845452Y-85072000D01*
X141741780Y-85072000D01*
X141673659Y-85051998D01*
X141627166Y-84998342D01*
X141617062Y-84928068D01*
X141646556Y-84863488D01*
X141674824Y-84839263D01*
X141873987Y-84714329D01*
X142290363Y-84453137D01*
X142303075Y-84446148D01*
X142554579Y-84326187D01*
X143496000Y-84326187D01*
X143496000Y-84697885D01*
X143500475Y-84713124D01*
X143501865Y-84714329D01*
X143509548Y-84716000D01*
X144307885Y-84716000D01*
X144323124Y-84711525D01*
X144324329Y-84710135D01*
X144326000Y-84702452D01*
X144326000Y-84079115D01*
X144324659Y-84074548D01*
X144834000Y-84074548D01*
X144834000Y-84697885D01*
X144838475Y-84713124D01*
X144839865Y-84714329D01*
X144847548Y-84716000D01*
X146132885Y-84716000D01*
X146148124Y-84711525D01*
X146149329Y-84710135D01*
X146151000Y-84702452D01*
X146151000Y-83779115D01*
X146149659Y-83774548D01*
X146659000Y-83774548D01*
X146659000Y-84697885D01*
X146663475Y-84713124D01*
X146664865Y-84714329D01*
X146672548Y-84716000D01*
X147145885Y-84716000D01*
X147161124Y-84711525D01*
X147162329Y-84710135D01*
X147164000Y-84702452D01*
X147164000Y-84026187D01*
X147946000Y-84026187D01*
X147946000Y-84697885D01*
X147950475Y-84713124D01*
X147951865Y-84714329D01*
X147959548Y-84716000D01*
X148832885Y-84716000D01*
X148848124Y-84711525D01*
X148849329Y-84710135D01*
X148851000Y-84702452D01*
X148851000Y-83779115D01*
X148849659Y-83774548D01*
X149359000Y-83774548D01*
X149359000Y-84697885D01*
X149363475Y-84713124D01*
X149364865Y-84714329D01*
X149372548Y-84716000D01*
X151057885Y-84716000D01*
X151073124Y-84711525D01*
X151074329Y-84710135D01*
X151076000Y-84702452D01*
X151076000Y-84079115D01*
X151074659Y-84074548D01*
X151584000Y-84074548D01*
X151584000Y-84697885D01*
X151588475Y-84713124D01*
X151589865Y-84714329D01*
X151597548Y-84716000D01*
X152395885Y-84716000D01*
X152411124Y-84711525D01*
X152412329Y-84710135D01*
X152414000Y-84702452D01*
X152414000Y-84326187D01*
X152412793Y-84313932D01*
X152396706Y-84233057D01*
X152387390Y-84210565D01*
X152345034Y-84147175D01*
X152327827Y-84129968D01*
X152310490Y-84118384D01*
X152264962Y-84063908D01*
X152260272Y-84026575D01*
X152238493Y-84048168D01*
X152166230Y-84062716D01*
X152148810Y-84061000D01*
X151602115Y-84061000D01*
X151586876Y-84065475D01*
X151585671Y-84066865D01*
X151584000Y-84074548D01*
X151074659Y-84074548D01*
X151071525Y-84063876D01*
X151070135Y-84062671D01*
X151062452Y-84061000D01*
X150511187Y-84061000D01*
X150498932Y-84062207D01*
X150405885Y-84080715D01*
X150405057Y-84076553D01*
X150357712Y-84081650D01*
X150294220Y-84049880D01*
X150256487Y-83982230D01*
X150246706Y-83933057D01*
X150237390Y-83910565D01*
X150195034Y-83847175D01*
X150177825Y-83829966D01*
X150114435Y-83787610D01*
X150091943Y-83778294D01*
X150011068Y-83762207D01*
X149998813Y-83761000D01*
X149377115Y-83761000D01*
X149361876Y-83765475D01*
X149360671Y-83766865D01*
X149359000Y-83774548D01*
X148849659Y-83774548D01*
X148846525Y-83763876D01*
X148845135Y-83762671D01*
X148837452Y-83761000D01*
X148211187Y-83761000D01*
X148198932Y-83762207D01*
X148118057Y-83778294D01*
X148095565Y-83787610D01*
X148032175Y-83829966D01*
X148014966Y-83847175D01*
X147972610Y-83910565D01*
X147963294Y-83933057D01*
X147947207Y-84013932D01*
X147946000Y-84026187D01*
X147164000Y-84026187D01*
X147162793Y-84013932D01*
X147146706Y-83933057D01*
X147137390Y-83910565D01*
X147095034Y-83847175D01*
X147077825Y-83829966D01*
X147014435Y-83787610D01*
X146991943Y-83778294D01*
X146911068Y-83762207D01*
X146898813Y-83761000D01*
X146677115Y-83761000D01*
X146661876Y-83765475D01*
X146660671Y-83766865D01*
X146659000Y-83774548D01*
X146149659Y-83774548D01*
X146146525Y-83763876D01*
X146145135Y-83762671D01*
X146137452Y-83761000D01*
X145911187Y-83761000D01*
X145898932Y-83762207D01*
X145818057Y-83778294D01*
X145795565Y-83787610D01*
X145732175Y-83829966D01*
X145714966Y-83847175D01*
X145672610Y-83910565D01*
X145663294Y-83933057D01*
X145653513Y-83982230D01*
X145620606Y-84045140D01*
X145558911Y-84080272D01*
X145505066Y-84075934D01*
X145504115Y-84080715D01*
X145411068Y-84062207D01*
X145398813Y-84061000D01*
X144852115Y-84061000D01*
X144836876Y-84065475D01*
X144835671Y-84066865D01*
X144834000Y-84074548D01*
X144324659Y-84074548D01*
X144321525Y-84063876D01*
X144320135Y-84062671D01*
X144312452Y-84061000D01*
X143761187Y-84061000D01*
X143748934Y-84062207D01*
X143684042Y-84075115D01*
X143661029Y-84073056D01*
X143653501Y-84082309D01*
X143582173Y-84129968D01*
X143564966Y-84147175D01*
X143522610Y-84210565D01*
X143513294Y-84233057D01*
X143497207Y-84313932D01*
X143496000Y-84326187D01*
X142554579Y-84326187D01*
X143510484Y-83870244D01*
X143523915Y-83864763D01*
X143542687Y-83858336D01*
X143583829Y-83856514D01*
X143601058Y-83839889D01*
X143618646Y-83832329D01*
X144789507Y-83431452D01*
X144803476Y-83427552D01*
X146110499Y-83142576D01*
X146124821Y-83140307D01*
X147455920Y-83007446D01*
X147470407Y-83006839D01*
X148170891Y-83017843D01*
G37*
%TD.AperFunction*%
%TD*%
M02*
