M48
; DRILL file {KiCad 5.99.0-1.20210313gitc119790.fc32} date Sun Apr 11 18:30:09 2021
; FORMAT={-:-/ absolute / inch / decimal}
; #@! TF.CreationDate,2021-04-11T18:30:09+02:00
; #@! TF.GenerationSoftware,Kicad,Pcbnew,5.99.0-1.20210313gitc119790.fc32
FMAT,2
INCH
; #@! TA.AperFunction,ViaDrill
T1C0.0157
; #@! TA.AperFunction,ComponentDrill
T2C0.0295
; #@! TA.AperFunction,ComponentDrill
T3C0.0354
; #@! TA.AperFunction,MechanicalDrill
T4C0.0276
%
G90
G05
T1
; via hole
X5.448Y-3.504
X5.462Y-3.908
X5.478Y-3.796
X5.492Y-3.636
X5.5236Y-3.9961
X5.53Y-3.46
X5.53Y-3.532
X5.5591Y-4.0315
X5.564Y-3.815
X5.564Y-3.86
X5.6096Y-3.6396
X5.6165Y-3.57
X5.65Y-4.01
X5.66Y-3.425
X5.66Y-3.47
X5.738Y-3.86
X5.78Y-4.024
X5.796Y-3.63
X5.822Y-4.134
X5.866Y-3.816
X5.92Y-3.97
X6.046Y-3.382
X6.134Y-3.85
X6.152Y-3.934
X6.164Y-3.49
T2
; pad hole
X6.0Y-3.96
X6.0787Y-3.96
T3
X5.775Y-3.73
X5.875Y-3.73
T4
; mechanical
X5.5023Y-3.9113
X5.5377Y-3.9466
X5.573Y-3.982
X5.6084Y-4.0173
X5.6437Y-4.0527
T0
M30
