%TF.GenerationSoftware,KiCad,Pcbnew,5.99.0-1.20210525git45ba067.fc33*%
%TF.CreationDate,2021-06-21T21:42:01+02:00*%
%TF.ProjectId,led-pedestal,6c65642d-7065-4646-9573-74616c2e6b69,2*%
%TF.SameCoordinates,Original*%
%TF.FileFunction,Copper,L2,Bot*%
%TF.FilePolarity,Positive*%
%FSLAX46Y46*%
G04 Gerber Fmt 4.6, Leading zero omitted, Abs format (unit mm)*
G04 Created by KiCad (PCBNEW 5.99.0-1.20210525git45ba067.fc33) date 2021-06-21 21:42:01*
%MOMM*%
%LPD*%
G01*
G04 APERTURE LIST*
G04 Aperture macros list*
%AMRoundRect*
0 Rectangle with rounded corners*
0 $1 Rounding radius*
0 $2 $3 $4 $5 $6 $7 $8 $9 X,Y pos of 4 corners*
0 Add a 4 corners polygon primitive as box body*
4,1,4,$2,$3,$4,$5,$6,$7,$8,$9,$2,$3,0*
0 Add four circle primitives for the rounded corners*
1,1,$1+$1,$2,$3*
1,1,$1+$1,$4,$5*
1,1,$1+$1,$6,$7*
1,1,$1+$1,$8,$9*
0 Add four rect primitives between the rounded corners*
20,1,$1+$1,$2,$3,$4,$5,0*
20,1,$1+$1,$4,$5,$6,$7,0*
20,1,$1+$1,$6,$7,$8,$9,0*
20,1,$1+$1,$8,$9,$2,$3,0*%
%AMHorizOval*
0 Thick line with rounded ends*
0 $1 width*
0 $2 $3 position (X,Y) of the first rounded end (center of the circle)*
0 $4 $5 position (X,Y) of the second rounded end (center of the circle)*
0 Add line between two ends*
20,1,$1,$2,$3,$4,$5,0*
0 Add two circle primitives to create the rounded ends*
1,1,$1,$2,$3*
1,1,$1,$4,$5*%
%AMFreePoly0*
4,1,22,0.550000,-0.750000,0.000000,-0.750000,0.000000,-0.745033,-0.079941,-0.743568,-0.215256,-0.701293,-0.333266,-0.622738,-0.424486,-0.514219,-0.481581,-0.384460,-0.499164,-0.250000,-0.500000,-0.250000,-0.500000,0.250000,-0.499164,0.250000,-0.499963,0.256109,-0.478152,0.396186,-0.417904,0.524511,-0.324060,0.630769,-0.204165,0.706417,-0.067858,0.745374,0.000000,0.744959,0.000000,0.750000,
0.550000,0.750000,0.550000,-0.750000,0.550000,-0.750000,$1*%
%AMFreePoly1*
4,1,20,0.000000,0.744959,0.073905,0.744508,0.209726,0.703889,0.328688,0.626782,0.421226,0.519385,0.479903,0.390333,0.500000,0.250000,0.500000,-0.250000,0.499851,-0.262216,0.476331,-0.402017,0.414519,-0.529596,0.319384,-0.634700,0.198574,-0.708877,0.061801,-0.746166,0.000000,-0.745033,0.000000,-0.750000,-0.550000,-0.750000,-0.550000,0.750000,0.000000,0.750000,0.000000,0.744959,
0.000000,0.744959,$1*%
G04 Aperture macros list end*
%TA.AperFunction,SMDPad,CuDef*%
%ADD10HorizOval,0.800000X-0.247487X-0.247487X0.247487X0.247487X0*%
%TD*%
%TA.AperFunction,ComponentPad*%
%ADD11R,1.800000X1.800000*%
%TD*%
%TA.AperFunction,ComponentPad*%
%ADD12C,1.800000*%
%TD*%
%TA.AperFunction,SMDPad,CuDef*%
%ADD13FreePoly0,180.000000*%
%TD*%
%TA.AperFunction,SMDPad,CuDef*%
%ADD14R,1.000000X1.500000*%
%TD*%
%TA.AperFunction,SMDPad,CuDef*%
%ADD15FreePoly1,180.000000*%
%TD*%
%TA.AperFunction,ComponentPad*%
%ADD16RoundRect,0.250000X-0.350000X-0.625000X0.350000X-0.625000X0.350000X0.625000X-0.350000X0.625000X0*%
%TD*%
%TA.AperFunction,ComponentPad*%
%ADD17O,1.200000X1.750000*%
%TD*%
%TA.AperFunction,ViaPad*%
%ADD18C,0.800000*%
%TD*%
%TA.AperFunction,Conductor*%
%ADD19C,0.250000*%
%TD*%
G04 APERTURE END LIST*
%TO.C,JP1*%
G36*
X148778800Y-103932000D02*
G01*
X148278800Y-103932000D01*
X148278800Y-103332000D01*
X148778800Y-103332000D01*
X148778800Y-103932000D01*
G37*
%TD*%
D10*
%TO.P,J2,5,Pin_5*%
%TO.N,VCC*%
X139391292Y-100611631D03*
%TO.P,J2,6,Pin_6*%
%TO.N,GND*%
X140289317Y-101509657D03*
%TO.P,J2,7,Pin_7*%
X141187343Y-102407683D03*
%TO.P,J2,8,Pin_8*%
%TO.N,/RST*%
X142085369Y-103305708D03*
%TD*%
D11*
%TO.P,D2,1,K*%
%TO.N,GND*%
X149225000Y-94743000D03*
D12*
%TO.P,D2,2,A*%
%TO.N,Net-(D2-Pad2)*%
X146685000Y-94743000D03*
%TD*%
D13*
%TO.P,JP1,1,A*%
%TO.N,+BATT*%
X149178800Y-103632000D03*
D14*
%TO.P,JP1,2,C*%
%TO.N,Net-(JP1-Pad2)*%
X147878800Y-103632000D03*
D15*
%TO.P,JP1,3,B*%
%TO.N,GND*%
X146578800Y-103632000D03*
%TD*%
D16*
%TO.P,BT1,1,Pin_1*%
%TO.N,Net-(BT1-Pad1)*%
X152400000Y-100584000D03*
D17*
%TO.P,BT1,2,Pin_2*%
%TO.N,+BATT*%
X154400000Y-100584000D03*
%TD*%
D18*
%TO.N,GND*%
X145654600Y-101367873D03*
%TO.N,+BATT*%
X142485000Y-92447000D03*
X156565600Y-88646000D03*
%TO.N,GND*%
X147218400Y-92202000D03*
X140300000Y-101500000D03*
X138379200Y-89001600D03*
X150368000Y-100838000D03*
X153568400Y-85902800D03*
X155803600Y-97790000D03*
X143764000Y-88138000D03*
X143764000Y-86995000D03*
X141200000Y-102400000D03*
X142658000Y-90678000D03*
X139141200Y-96418400D03*
X156260800Y-99923600D03*
X139496800Y-92354400D03*
%TO.N,/AN1|CLK*%
X138734800Y-99263200D03*
X141325600Y-96901000D03*
%TO.N,VCC*%
X140462000Y-87884000D03*
X148996400Y-96926400D03*
X145745200Y-98044000D03*
%TO.N,/RST*%
X143510000Y-101854000D03*
%TO.N,/AN0|DAT*%
X141325600Y-98044000D03*
X140462000Y-89712800D03*
%TO.N,Net-(JP1-Pad2)*%
X147878800Y-105003600D03*
%TD*%
D19*
%TO.N,+BATT*%
X154400000Y-100584000D02*
X151352000Y-103632000D01*
X157480000Y-89560400D02*
X156565600Y-88646000D01*
X157480000Y-97504000D02*
X157480000Y-89560400D01*
X144424400Y-96164400D02*
X152755600Y-96164400D01*
X154400000Y-100584000D02*
X157480000Y-97504000D01*
X142485000Y-94225000D02*
X144424400Y-96164400D01*
X154400000Y-97808800D02*
X154400000Y-100584000D01*
X152755600Y-96164400D02*
X154400000Y-97808800D01*
X142485000Y-92447000D02*
X142485000Y-94225000D01*
X151352000Y-103632000D02*
X149178800Y-103632000D01*
%TO.N,/AN1|CLK*%
X141097000Y-96901000D02*
X141325600Y-96901000D01*
X138734800Y-99263200D02*
X141097000Y-96901000D01*
%TO.N,VCC*%
X138009799Y-99604999D02*
X138009799Y-98845201D01*
X139016431Y-100611631D02*
X138009799Y-99604999D01*
X140462000Y-96393000D02*
X140462000Y-91033600D01*
X139649200Y-90220800D02*
X139649200Y-88696800D01*
X139649200Y-88696800D02*
X140462000Y-87884000D01*
X145745200Y-98044000D02*
X145034000Y-98044000D01*
X141732000Y-89154000D02*
X140462000Y-87884000D01*
X146862800Y-96926400D02*
X145745200Y-98044000D01*
X145034000Y-98044000D02*
X141732000Y-94742000D01*
X138009799Y-98845201D02*
X140462000Y-96393000D01*
X140462000Y-91033600D02*
X139649200Y-90220800D01*
X139391292Y-100611631D02*
X139016431Y-100611631D01*
X141732000Y-94742000D02*
X141732000Y-89154000D01*
X148996400Y-96926400D02*
X146862800Y-96926400D01*
%TO.N,/RST*%
X144221200Y-102768400D02*
X143408400Y-101955600D01*
X142818061Y-104038400D02*
X143662400Y-104038400D01*
X143662400Y-104038400D02*
X144221200Y-103479600D01*
X142085369Y-103305708D02*
X142818061Y-104038400D01*
X144221200Y-103479600D02*
X144221200Y-102768400D01*
%TO.N,/AN0|DAT*%
X141605000Y-98044000D02*
X141274800Y-98044000D01*
X140447053Y-89787853D02*
X141097000Y-90437800D01*
X141097000Y-90437800D02*
X141097000Y-95250000D01*
X141097000Y-95250000D02*
X142240000Y-96393000D01*
X142240000Y-96393000D02*
X142240000Y-97409000D01*
X142240000Y-97409000D02*
X141605000Y-98044000D01*
%TO.N,Net-(JP1-Pad2)*%
X147878800Y-105003600D02*
X147878800Y-103632000D01*
%TD*%
%TA.AperFunction,Conductor*%
%TO.N,GND*%
G36*
X148170891Y-83017843D02*
G01*
X148807960Y-83027851D01*
X148822427Y-83028913D01*
X150148703Y-83203521D01*
X150162952Y-83206239D01*
X151460352Y-83532123D01*
X151474195Y-83536461D01*
X151946782Y-83715037D01*
X152725570Y-84009317D01*
X152738803Y-84015209D01*
X153927536Y-84628759D01*
X153940018Y-84636141D01*
X155050340Y-85382246D01*
X155061894Y-85391017D01*
X156079096Y-86259789D01*
X156089566Y-86269829D01*
X157000176Y-87249762D01*
X157009421Y-87260936D01*
X157747199Y-88265299D01*
X157801372Y-88339047D01*
X157809270Y-88351208D01*
X158020041Y-88720730D01*
X158472049Y-89513186D01*
X158478498Y-89526179D01*
X159003341Y-90756654D01*
X159008255Y-90770303D01*
X159388181Y-92052914D01*
X159391494Y-92067037D01*
X159621488Y-93384843D01*
X159623155Y-93399253D01*
X159700447Y-94739721D01*
X159700594Y-94750928D01*
X159682475Y-95327466D01*
X159677977Y-95470608D01*
X159677126Y-95481787D01*
X159522567Y-96758996D01*
X159515821Y-96814740D01*
X159513253Y-96829017D01*
X159200966Y-98129785D01*
X159196773Y-98143672D01*
X158938443Y-98849594D01*
X158759814Y-99337722D01*
X158737056Y-99399910D01*
X158731296Y-99413221D01*
X158568074Y-99737751D01*
X158130236Y-100608294D01*
X158122983Y-100620857D01*
X157388544Y-101738933D01*
X157379895Y-101750579D01*
X157012693Y-102189748D01*
X156571109Y-102717877D01*
X156521817Y-102776829D01*
X156511887Y-102787403D01*
X155541544Y-103708224D01*
X155530464Y-103717587D01*
X154460716Y-104520777D01*
X154448633Y-104528805D01*
X153293644Y-105203726D01*
X153280719Y-105210311D01*
X152055826Y-105748002D01*
X152042249Y-105753052D01*
X150873695Y-106112546D01*
X150763662Y-106146396D01*
X150749575Y-106149856D01*
X149434253Y-106393636D01*
X149419861Y-106395454D01*
X148651008Y-106447870D01*
X148085241Y-106486440D01*
X148070742Y-106486592D01*
X147631303Y-106465869D01*
X146734509Y-106423577D01*
X146720082Y-106422061D01*
X145399948Y-106205880D01*
X145385791Y-106202715D01*
X144099262Y-105836237D01*
X144085563Y-105831467D01*
X143299750Y-105505973D01*
X142849660Y-105319540D01*
X142836613Y-105313232D01*
X141667755Y-104662655D01*
X141655507Y-104654883D01*
X140569166Y-103874268D01*
X140557892Y-103865138D01*
X139568479Y-102964840D01*
X139558330Y-102954476D01*
X139209440Y-102554536D01*
X139609267Y-102554536D01*
X139615623Y-102563026D01*
X139621797Y-102567036D01*
X139633503Y-102573001D01*
X139799363Y-102636668D01*
X139812048Y-102640067D01*
X139933033Y-102659228D01*
X139997186Y-102689640D01*
X140034713Y-102749908D01*
X140037772Y-102763967D01*
X140056933Y-102884952D01*
X140060332Y-102897637D01*
X140123999Y-103063497D01*
X140129964Y-103075203D01*
X140132163Y-103078590D01*
X140142866Y-103087774D01*
X140152493Y-103083322D01*
X140815322Y-102420494D01*
X140822935Y-102406551D01*
X140822804Y-102404717D01*
X140818553Y-102398103D01*
X140302129Y-101881679D01*
X140288185Y-101874065D01*
X140286352Y-101874196D01*
X140279737Y-101878447D01*
X139616024Y-102542161D01*
X139609267Y-102554536D01*
X139209440Y-102554536D01*
X138678950Y-101946425D01*
X138670059Y-101934963D01*
X137912364Y-100832508D01*
X137904850Y-100820100D01*
X137278902Y-99637892D01*
X137272863Y-99624703D01*
X137258119Y-99586886D01*
X137625726Y-99586886D01*
X137626950Y-99597225D01*
X137629426Y-99618148D01*
X137629810Y-99624665D01*
X137629871Y-99624660D01*
X137630299Y-99629839D01*
X137630299Y-99635039D01*
X137631153Y-99640167D01*
X137631153Y-99640172D01*
X137633708Y-99655522D01*
X137634545Y-99661399D01*
X137640566Y-99712271D01*
X137644527Y-99720519D01*
X137646029Y-99729545D01*
X137670368Y-99774653D01*
X137673046Y-99779911D01*
X137691788Y-99818943D01*
X137691790Y-99818947D01*
X137695220Y-99826089D01*
X137700627Y-99832521D01*
X137702565Y-99834459D01*
X137702741Y-99834650D01*
X137705984Y-99840662D01*
X137713632Y-99847731D01*
X137713636Y-99847737D01*
X137741001Y-99873032D01*
X137744568Y-99876462D01*
X138469570Y-100601464D01*
X138503596Y-100663776D01*
X138504924Y-100710269D01*
X138487529Y-100820100D01*
X138484630Y-100838403D01*
X138485376Y-100846294D01*
X138498414Y-100984212D01*
X138500188Y-101002983D01*
X138502872Y-101010437D01*
X138502872Y-101010439D01*
X138532413Y-101092493D01*
X138556186Y-101158525D01*
X138649107Y-101295254D01*
X138655055Y-101300498D01*
X138655056Y-101300499D01*
X138743100Y-101378119D01*
X138773111Y-101404577D01*
X138780171Y-101408174D01*
X138780172Y-101408175D01*
X138823962Y-101430487D01*
X138920407Y-101479628D01*
X138999307Y-101497264D01*
X139040591Y-101506493D01*
X139102708Y-101540874D01*
X139136376Y-101603379D01*
X139138931Y-101636051D01*
X139130427Y-101798334D01*
X139131114Y-101811444D01*
X139158907Y-101986926D01*
X139162306Y-101999611D01*
X139225973Y-102165471D01*
X139231938Y-102177177D01*
X139234137Y-102180564D01*
X139244840Y-102189748D01*
X139254465Y-102185297D01*
X140200222Y-101239541D01*
X140262534Y-101205516D01*
X140333350Y-101210581D01*
X140378412Y-101239542D01*
X141457458Y-102318588D01*
X141491484Y-102380900D01*
X141486419Y-102451715D01*
X141457458Y-102496778D01*
X141187343Y-102766893D01*
X140514054Y-103440183D01*
X140507294Y-103452563D01*
X140513649Y-103461053D01*
X140519823Y-103465062D01*
X140531529Y-103471027D01*
X140697389Y-103534694D01*
X140710074Y-103538093D01*
X140885556Y-103565886D01*
X140898664Y-103566573D01*
X141059870Y-103558125D01*
X141128944Y-103574534D01*
X141178181Y-103625684D01*
X141191905Y-103672094D01*
X141194265Y-103697060D01*
X141196949Y-103704514D01*
X141196949Y-103704516D01*
X141218360Y-103763988D01*
X141250263Y-103852602D01*
X141264970Y-103874242D01*
X141306815Y-103935815D01*
X141343184Y-103989331D01*
X141349132Y-103994575D01*
X141349133Y-103994576D01*
X141434199Y-104069571D01*
X141467188Y-104098654D01*
X141614484Y-104173705D01*
X141775818Y-104209768D01*
X141783744Y-104209519D01*
X141783745Y-104209519D01*
X141868485Y-104206856D01*
X141941051Y-104204575D01*
X142047307Y-104173705D01*
X142092188Y-104160666D01*
X142092190Y-104160665D01*
X142099801Y-104158454D01*
X142205207Y-104096117D01*
X142274025Y-104078658D01*
X142341356Y-104101175D01*
X142358442Y-104115476D01*
X142512406Y-104269440D01*
X142525483Y-104285632D01*
X142528024Y-104288425D01*
X142533673Y-104297173D01*
X142541851Y-104303620D01*
X142541852Y-104303621D01*
X142558392Y-104316660D01*
X142563277Y-104321002D01*
X142563317Y-104320955D01*
X142567274Y-104324308D01*
X142570955Y-104327989D01*
X142579925Y-104334399D01*
X142587866Y-104340074D01*
X142592612Y-104343638D01*
X142632827Y-104375340D01*
X142641458Y-104378371D01*
X142648904Y-104383692D01*
X142658882Y-104386676D01*
X142658884Y-104386677D01*
X142697996Y-104398374D01*
X142703643Y-104400209D01*
X142744475Y-104414549D01*
X142744478Y-104414550D01*
X142751954Y-104417175D01*
X142760326Y-104417900D01*
X142763035Y-104417900D01*
X142763328Y-104417913D01*
X142769870Y-104419869D01*
X142817505Y-104417997D01*
X142822454Y-104417900D01*
X143609635Y-104417900D01*
X143630353Y-104420105D01*
X143634111Y-104420282D01*
X143644287Y-104422473D01*
X143675549Y-104418773D01*
X143682066Y-104418389D01*
X143682061Y-104418328D01*
X143687240Y-104417900D01*
X143692440Y-104417900D01*
X143697568Y-104417046D01*
X143697573Y-104417046D01*
X143712923Y-104414491D01*
X143718800Y-104413654D01*
X143737054Y-104411493D01*
X143769672Y-104407633D01*
X143777920Y-104403672D01*
X143786946Y-104402170D01*
X143832054Y-104377831D01*
X143837312Y-104375153D01*
X143876344Y-104356411D01*
X143876348Y-104356409D01*
X143883490Y-104352979D01*
X143889922Y-104347572D01*
X143891860Y-104345634D01*
X143892051Y-104345458D01*
X143898063Y-104342215D01*
X143905132Y-104334567D01*
X143905138Y-104334563D01*
X143930433Y-104307198D01*
X143933863Y-104303631D01*
X144452238Y-103785256D01*
X144468434Y-103772175D01*
X144471221Y-103769639D01*
X144479973Y-103763988D01*
X144499464Y-103739264D01*
X144503804Y-103734381D01*
X144503757Y-103734341D01*
X144507112Y-103730382D01*
X144510789Y-103726705D01*
X144513808Y-103722480D01*
X144513816Y-103722471D01*
X144522870Y-103709801D01*
X144526434Y-103705053D01*
X144526858Y-103704516D01*
X144558140Y-103664834D01*
X144561171Y-103656203D01*
X144566492Y-103648757D01*
X144581172Y-103599672D01*
X144583006Y-103594027D01*
X144597349Y-103553186D01*
X144597350Y-103553183D01*
X144599975Y-103545707D01*
X144600700Y-103537335D01*
X144600700Y-103534626D01*
X144600713Y-103534331D01*
X144602669Y-103527790D01*
X144600797Y-103480155D01*
X144600700Y-103475207D01*
X144600700Y-102821165D01*
X144602905Y-102800447D01*
X144603082Y-102796689D01*
X144605273Y-102786513D01*
X144601573Y-102755251D01*
X144601189Y-102748734D01*
X144601128Y-102748739D01*
X144600700Y-102743560D01*
X144600700Y-102738360D01*
X144597291Y-102717877D01*
X144596454Y-102712000D01*
X144592489Y-102678501D01*
X144590433Y-102661128D01*
X144586472Y-102652880D01*
X144584970Y-102643854D01*
X144560631Y-102598746D01*
X144557953Y-102593488D01*
X144539211Y-102554456D01*
X144539209Y-102554452D01*
X144535779Y-102547310D01*
X144530372Y-102540878D01*
X144528436Y-102538942D01*
X144528258Y-102538748D01*
X144525015Y-102532737D01*
X144490024Y-102500392D01*
X144486457Y-102496962D01*
X144167236Y-102177741D01*
X144133210Y-102115429D01*
X144139180Y-102042261D01*
X144145863Y-102025383D01*
X144145864Y-102025377D01*
X144148781Y-102018011D01*
X144151106Y-101999611D01*
X144168506Y-101861868D01*
X144169500Y-101854000D01*
X144153923Y-101730694D01*
X144149775Y-101697854D01*
X144149774Y-101697851D01*
X144148781Y-101689989D01*
X144132898Y-101649874D01*
X144090842Y-101543652D01*
X144090841Y-101543650D01*
X144087924Y-101536283D01*
X144074039Y-101517171D01*
X144003692Y-101420348D01*
X143990755Y-101402541D01*
X143984647Y-101397488D01*
X143869487Y-101302219D01*
X143869483Y-101302216D01*
X143863378Y-101297166D01*
X143713797Y-101226778D01*
X143706014Y-101225293D01*
X143706013Y-101225293D01*
X143559196Y-101197286D01*
X143559194Y-101197286D01*
X143551410Y-101195801D01*
X143468916Y-101200991D01*
X143394333Y-101205684D01*
X143394331Y-101205684D01*
X143386422Y-101206182D01*
X143378886Y-101208631D01*
X143378884Y-101208631D01*
X143236741Y-101254816D01*
X143236738Y-101254817D01*
X143229199Y-101257267D01*
X143089619Y-101345847D01*
X143084192Y-101351626D01*
X143084191Y-101351627D01*
X143031089Y-101408175D01*
X142976453Y-101466356D01*
X142972636Y-101473300D01*
X142972634Y-101473302D01*
X142964578Y-101487956D01*
X142914233Y-101538015D01*
X142844816Y-101552909D01*
X142777462Y-101527221D01*
X142764364Y-101517171D01*
X142757814Y-101512145D01*
X142610814Y-101451255D01*
X142602630Y-101450178D01*
X142602628Y-101450177D01*
X142461252Y-101431565D01*
X142453064Y-101430487D01*
X142444876Y-101431565D01*
X142332929Y-101446303D01*
X142295314Y-101451255D01*
X142294273Y-101451686D01*
X142226599Y-101450073D01*
X142167804Y-101410277D01*
X142139859Y-101345011D01*
X142142959Y-101301670D01*
X142143770Y-101299712D01*
X142145221Y-101288696D01*
X142163460Y-101150150D01*
X142164538Y-101141962D01*
X142146727Y-101006672D01*
X142144848Y-100992398D01*
X142144847Y-100992396D01*
X142143770Y-100984212D01*
X142082880Y-100837212D01*
X141986020Y-100710980D01*
X141859788Y-100614120D01*
X141712788Y-100553230D01*
X141704604Y-100552153D01*
X141704602Y-100552152D01*
X141563226Y-100533540D01*
X141555038Y-100532462D01*
X141546850Y-100533540D01*
X141405474Y-100552152D01*
X141405472Y-100552153D01*
X141397288Y-100553230D01*
X141396249Y-100553660D01*
X141328576Y-100552049D01*
X141269781Y-100512253D01*
X141241834Y-100446989D01*
X141244933Y-100403646D01*
X141245745Y-100401686D01*
X141266513Y-100243936D01*
X141245745Y-100086186D01*
X141184855Y-99939186D01*
X141087995Y-99812954D01*
X140961763Y-99716094D01*
X140814763Y-99655204D01*
X140806579Y-99654127D01*
X140806577Y-99654126D01*
X140665201Y-99635514D01*
X140657013Y-99634436D01*
X140499263Y-99655204D01*
X140498222Y-99655635D01*
X140430548Y-99654022D01*
X140371753Y-99614226D01*
X140343808Y-99548960D01*
X140346907Y-99505620D01*
X140347719Y-99503660D01*
X140368487Y-99345910D01*
X140365292Y-99321641D01*
X140348797Y-99196346D01*
X140348796Y-99196344D01*
X140347719Y-99188160D01*
X140286829Y-99041160D01*
X140189969Y-98914928D01*
X140063737Y-98818068D01*
X140056112Y-98814910D01*
X140056104Y-98814905D01*
X139992510Y-98788563D01*
X139937229Y-98744015D01*
X139914809Y-98676651D01*
X139932368Y-98607860D01*
X139951634Y-98583060D01*
X140461315Y-98073379D01*
X140523627Y-98039353D01*
X140594442Y-98044418D01*
X140651278Y-98086965D01*
X140672449Y-98131134D01*
X140712412Y-98286778D01*
X140792053Y-98431644D01*
X140797477Y-98437420D01*
X140851980Y-98495459D01*
X140905219Y-98552153D01*
X141044799Y-98640733D01*
X141052338Y-98643183D01*
X141052341Y-98643184D01*
X141194484Y-98689369D01*
X141194486Y-98689369D01*
X141202022Y-98691818D01*
X141209931Y-98692316D01*
X141209933Y-98692316D01*
X141284516Y-98697008D01*
X141367010Y-98702199D01*
X141374794Y-98700714D01*
X141374796Y-98700714D01*
X141521613Y-98672707D01*
X141521614Y-98672707D01*
X141529397Y-98671222D01*
X141678978Y-98600834D01*
X141685083Y-98595784D01*
X141685087Y-98595781D01*
X141800247Y-98500512D01*
X141806355Y-98495459D01*
X141857206Y-98425468D01*
X141898865Y-98368130D01*
X141898866Y-98368128D01*
X141903524Y-98361717D01*
X141946057Y-98254290D01*
X141974114Y-98211580D01*
X142471038Y-97714656D01*
X142487234Y-97701575D01*
X142490021Y-97699039D01*
X142498773Y-97693388D01*
X142518264Y-97668664D01*
X142522604Y-97663781D01*
X142522557Y-97663741D01*
X142525912Y-97659782D01*
X142529589Y-97656105D01*
X142532608Y-97651880D01*
X142532616Y-97651871D01*
X142541670Y-97639201D01*
X142545234Y-97634453D01*
X142545680Y-97633888D01*
X142576940Y-97594234D01*
X142579971Y-97585603D01*
X142585292Y-97578157D01*
X142599972Y-97529072D01*
X142601806Y-97523427D01*
X142616149Y-97482586D01*
X142616150Y-97482583D01*
X142618775Y-97475107D01*
X142619500Y-97466735D01*
X142619500Y-97464026D01*
X142619513Y-97463731D01*
X142621469Y-97457190D01*
X142619597Y-97409555D01*
X142619500Y-97404607D01*
X142619500Y-96470384D01*
X142639502Y-96402263D01*
X142693158Y-96355770D01*
X142763432Y-96345666D01*
X142828012Y-96375160D01*
X142834595Y-96381289D01*
X144728344Y-98275038D01*
X144741425Y-98291234D01*
X144743961Y-98294021D01*
X144749612Y-98302773D01*
X144757791Y-98309220D01*
X144757791Y-98309221D01*
X144774336Y-98322264D01*
X144779216Y-98326601D01*
X144779256Y-98326554D01*
X144783213Y-98329907D01*
X144786894Y-98333588D01*
X144791126Y-98336612D01*
X144803791Y-98345663D01*
X144808537Y-98349227D01*
X144848766Y-98380940D01*
X144857400Y-98383972D01*
X144864843Y-98389291D01*
X144874821Y-98392275D01*
X144913903Y-98403963D01*
X144919552Y-98405798D01*
X144967893Y-98422775D01*
X144976265Y-98423500D01*
X144978979Y-98423500D01*
X144979271Y-98423513D01*
X144985809Y-98425468D01*
X145033429Y-98423597D01*
X145038376Y-98423500D01*
X145149480Y-98423500D01*
X145217601Y-98443502D01*
X145241330Y-98463247D01*
X145312980Y-98539546D01*
X145324819Y-98552153D01*
X145464399Y-98640733D01*
X145471938Y-98643183D01*
X145471941Y-98643184D01*
X145614084Y-98689369D01*
X145614086Y-98689369D01*
X145621622Y-98691818D01*
X145629531Y-98692316D01*
X145629533Y-98692316D01*
X145704116Y-98697008D01*
X145786610Y-98702199D01*
X145794394Y-98700714D01*
X145794396Y-98700714D01*
X145941213Y-98672707D01*
X145941214Y-98672707D01*
X145948997Y-98671222D01*
X146098578Y-98600834D01*
X146104683Y-98595784D01*
X146104687Y-98595781D01*
X146219847Y-98500512D01*
X146225955Y-98495459D01*
X146276806Y-98425468D01*
X146318465Y-98368130D01*
X146318466Y-98368128D01*
X146323124Y-98361717D01*
X146328070Y-98349227D01*
X146381064Y-98215379D01*
X146381064Y-98215377D01*
X146383981Y-98208011D01*
X146404700Y-98044000D01*
X146398662Y-97996207D01*
X146409968Y-97926119D01*
X146434573Y-97891321D01*
X146983089Y-97342805D01*
X147045401Y-97308779D01*
X147072184Y-97305900D01*
X148400680Y-97305900D01*
X148468801Y-97325902D01*
X148492530Y-97345647D01*
X148552544Y-97409555D01*
X148576019Y-97434553D01*
X148715599Y-97523133D01*
X148723138Y-97525583D01*
X148723141Y-97525584D01*
X148865284Y-97571769D01*
X148865286Y-97571769D01*
X148872822Y-97574218D01*
X148880731Y-97574716D01*
X148880733Y-97574716D01*
X148951732Y-97579183D01*
X149037810Y-97584599D01*
X149045594Y-97583114D01*
X149045596Y-97583114D01*
X149192413Y-97555107D01*
X149192414Y-97555107D01*
X149200197Y-97553622D01*
X149349778Y-97483234D01*
X149355883Y-97478184D01*
X149355887Y-97478181D01*
X149471047Y-97382912D01*
X149477155Y-97377859D01*
X149523519Y-97314044D01*
X149569665Y-97250530D01*
X149569666Y-97250528D01*
X149574324Y-97244117D01*
X149635181Y-97090411D01*
X149639478Y-97056402D01*
X149654906Y-96934268D01*
X149655900Y-96926400D01*
X149642828Y-96822923D01*
X149636175Y-96770254D01*
X149636174Y-96770251D01*
X149635181Y-96762389D01*
X149632264Y-96755023D01*
X149632263Y-96755017D01*
X149616927Y-96716283D01*
X149610448Y-96645583D01*
X149643221Y-96582603D01*
X149704840Y-96547339D01*
X149734079Y-96543900D01*
X152546216Y-96543900D01*
X152614337Y-96563902D01*
X152635311Y-96580805D01*
X153983595Y-97929089D01*
X154017621Y-97991401D01*
X154020500Y-98018184D01*
X154020500Y-99467116D01*
X154000498Y-99535237D01*
X153953265Y-99578573D01*
X153925416Y-99593256D01*
X153925413Y-99593258D01*
X153919374Y-99596442D01*
X153777574Y-99716272D01*
X153773427Y-99721696D01*
X153773426Y-99721697D01*
X153668958Y-99858335D01*
X153668955Y-99858339D01*
X153664814Y-99863756D01*
X153586355Y-100032013D01*
X153545856Y-100213192D01*
X153545500Y-100219560D01*
X153545500Y-100849616D01*
X153525498Y-100917737D01*
X153508595Y-100938711D01*
X153469595Y-100977711D01*
X153407283Y-101011737D01*
X153336468Y-101006672D01*
X153279632Y-100964125D01*
X153254821Y-100897605D01*
X153254500Y-100888616D01*
X153254500Y-99924086D01*
X153242553Y-99840662D01*
X153240295Y-99824893D01*
X153240294Y-99824890D01*
X153239021Y-99816000D01*
X153221396Y-99777235D01*
X153196143Y-99721697D01*
X153179229Y-99684496D01*
X153084933Y-99575059D01*
X152963711Y-99496487D01*
X152865501Y-99467116D01*
X152831850Y-99457052D01*
X152831848Y-99457052D01*
X152825309Y-99455096D01*
X152817288Y-99454500D01*
X152015086Y-99454500D01*
X151972597Y-99460585D01*
X151915893Y-99468705D01*
X151915890Y-99468706D01*
X151907000Y-99469979D01*
X151898824Y-99473696D01*
X151898822Y-99473697D01*
X151870143Y-99486737D01*
X151775496Y-99529771D01*
X151666059Y-99624067D01*
X151587487Y-99745289D01*
X151546096Y-99883691D01*
X151545500Y-99891712D01*
X151545500Y-101243914D01*
X151548021Y-101261517D01*
X151553604Y-101300499D01*
X151560979Y-101352000D01*
X151620771Y-101483504D01*
X151715067Y-101592941D01*
X151836289Y-101671513D01*
X151891261Y-101687953D01*
X151968150Y-101710948D01*
X151968152Y-101710948D01*
X151974691Y-101712904D01*
X151982712Y-101713500D01*
X152429616Y-101713500D01*
X152497737Y-101733502D01*
X152544230Y-101787158D01*
X152554334Y-101857432D01*
X152524840Y-101922012D01*
X152518713Y-101928593D01*
X151874304Y-102573001D01*
X151231710Y-103215595D01*
X151169398Y-103249621D01*
X151142615Y-103252500D01*
X150029300Y-103252500D01*
X149961179Y-103232498D01*
X149914686Y-103178842D01*
X149907941Y-103160381D01*
X149903928Y-103146007D01*
X149903926Y-103146001D01*
X149902720Y-103141682D01*
X149845054Y-103010626D01*
X149806174Y-102948162D01*
X149753041Y-102884952D01*
X149716922Y-102841984D01*
X149716921Y-102841983D01*
X149714042Y-102838558D01*
X149710707Y-102835576D01*
X149710703Y-102835572D01*
X149662541Y-102792510D01*
X149662536Y-102792506D01*
X149659194Y-102789518D01*
X149603257Y-102752283D01*
X149543737Y-102712662D01*
X149543731Y-102712659D01*
X149540003Y-102710177D01*
X149473593Y-102678501D01*
X149469311Y-102677163D01*
X149469308Y-102677162D01*
X149341212Y-102637142D01*
X149341207Y-102637141D01*
X149336925Y-102635803D01*
X149264296Y-102624040D01*
X149183556Y-102622560D01*
X149183625Y-102618815D01*
X149182746Y-102618831D01*
X149182678Y-102622544D01*
X149125617Y-102621498D01*
X149125615Y-102621498D01*
X149121137Y-102621416D01*
X149116688Y-102621970D01*
X149112214Y-102622207D01*
X149112205Y-102622029D01*
X149104620Y-102622500D01*
X148628800Y-102622500D01*
X148529494Y-102642253D01*
X148528659Y-102638056D01*
X148481426Y-102643133D01*
X148478124Y-102642163D01*
X148478106Y-102642253D01*
X148384868Y-102623707D01*
X148378800Y-102622500D01*
X147378800Y-102622500D01*
X147279494Y-102642253D01*
X147195306Y-102698506D01*
X147139053Y-102782694D01*
X147119300Y-102882000D01*
X147119300Y-104382000D01*
X147139053Y-104481306D01*
X147195306Y-104565494D01*
X147229176Y-104588125D01*
X147274702Y-104642600D01*
X147283551Y-104713043D01*
X147272067Y-104746390D01*
X147272350Y-104746502D01*
X147269881Y-104752739D01*
X147269587Y-104753591D01*
X147265612Y-104760822D01*
X147224500Y-104920943D01*
X147224500Y-105086257D01*
X147265612Y-105246378D01*
X147345253Y-105391244D01*
X147350677Y-105397020D01*
X147405180Y-105455059D01*
X147458419Y-105511753D01*
X147597999Y-105600333D01*
X147605538Y-105602783D01*
X147605541Y-105602784D01*
X147747684Y-105648969D01*
X147747686Y-105648969D01*
X147755222Y-105651418D01*
X147763131Y-105651916D01*
X147763133Y-105651916D01*
X147837716Y-105656608D01*
X147920210Y-105661799D01*
X147927994Y-105660314D01*
X147927996Y-105660314D01*
X148074813Y-105632307D01*
X148074814Y-105632307D01*
X148082597Y-105630822D01*
X148232178Y-105560434D01*
X148238283Y-105555384D01*
X148238287Y-105555381D01*
X148353447Y-105460112D01*
X148359555Y-105455059D01*
X148456724Y-105321317D01*
X148476255Y-105271989D01*
X148514664Y-105174979D01*
X148514664Y-105174977D01*
X148517581Y-105167611D01*
X148538300Y-105003600D01*
X148525866Y-104905172D01*
X148518575Y-104847454D01*
X148518574Y-104847451D01*
X148517581Y-104839589D01*
X148514664Y-104832223D01*
X148514663Y-104832217D01*
X148507232Y-104813450D01*
X148500751Y-104742750D01*
X148533523Y-104679770D01*
X148595142Y-104644505D01*
X148628800Y-104642212D01*
X148628800Y-104641500D01*
X149178800Y-104641500D01*
X149178829Y-104641494D01*
X149180369Y-104641423D01*
X149184077Y-104641446D01*
X149241263Y-104641796D01*
X149241269Y-104641796D01*
X149245750Y-104641823D01*
X149318647Y-104631838D01*
X149322959Y-104630606D01*
X149322962Y-104630605D01*
X149414023Y-104604579D01*
X149456318Y-104592491D01*
X149523479Y-104562448D01*
X149527261Y-104560062D01*
X149527268Y-104560058D01*
X149611898Y-104506660D01*
X149644573Y-104486044D01*
X149700605Y-104438357D01*
X149756425Y-104375153D01*
X149792418Y-104334399D01*
X149792419Y-104334397D01*
X149795387Y-104331037D01*
X149835782Y-104269541D01*
X149896633Y-104139932D01*
X149908483Y-104101175D01*
X149908640Y-104100660D01*
X149947685Y-104041364D01*
X150012590Y-104012591D01*
X150029134Y-104011500D01*
X151299235Y-104011500D01*
X151319953Y-104013705D01*
X151323711Y-104013882D01*
X151333887Y-104016073D01*
X151365149Y-104012373D01*
X151371666Y-104011989D01*
X151371661Y-104011928D01*
X151376840Y-104011500D01*
X151382040Y-104011500D01*
X151387168Y-104010646D01*
X151387173Y-104010646D01*
X151402523Y-104008091D01*
X151408400Y-104007254D01*
X151426654Y-104005093D01*
X151459272Y-104001233D01*
X151467520Y-103997272D01*
X151476546Y-103995770D01*
X151521654Y-103971431D01*
X151526912Y-103968753D01*
X151565944Y-103950011D01*
X151565948Y-103950009D01*
X151573090Y-103946579D01*
X151579522Y-103941172D01*
X151581460Y-103939234D01*
X151581651Y-103939058D01*
X151587663Y-103935815D01*
X151594732Y-103928167D01*
X151594738Y-103928163D01*
X151620033Y-103900798D01*
X151623463Y-103897231D01*
X153870820Y-101649874D01*
X153933132Y-101615848D01*
X154006707Y-101621980D01*
X154076447Y-101649874D01*
X154162522Y-101684302D01*
X154162524Y-101684303D01*
X154168863Y-101686838D01*
X154277989Y-101704904D01*
X154345284Y-101716045D01*
X154345287Y-101716045D01*
X154352021Y-101717160D01*
X154358838Y-101716803D01*
X154358842Y-101716803D01*
X154515373Y-101708599D01*
X154537418Y-101707444D01*
X154716403Y-101658143D01*
X154880626Y-101571558D01*
X155022426Y-101451728D01*
X155054118Y-101410277D01*
X155131042Y-101309665D01*
X155131045Y-101309661D01*
X155135186Y-101304244D01*
X155213645Y-101135987D01*
X155242551Y-101006672D01*
X155253017Y-100959852D01*
X155253018Y-100959846D01*
X155254144Y-100954808D01*
X155254500Y-100948440D01*
X155254500Y-100318384D01*
X155274502Y-100250263D01*
X155291405Y-100229289D01*
X157711038Y-97809656D01*
X157727234Y-97796575D01*
X157730021Y-97794039D01*
X157738773Y-97788388D01*
X157758264Y-97763664D01*
X157762604Y-97758781D01*
X157762557Y-97758741D01*
X157765912Y-97754782D01*
X157769589Y-97751105D01*
X157772608Y-97746880D01*
X157772616Y-97746871D01*
X157781670Y-97734201D01*
X157785234Y-97729453D01*
X157810494Y-97697411D01*
X157810494Y-97697410D01*
X157816940Y-97689234D01*
X157819971Y-97680603D01*
X157825292Y-97673157D01*
X157828380Y-97662834D01*
X157839974Y-97624065D01*
X157841809Y-97618418D01*
X157856149Y-97577586D01*
X157856150Y-97577583D01*
X157858775Y-97570107D01*
X157859500Y-97561735D01*
X157859500Y-97559026D01*
X157859513Y-97558733D01*
X157861469Y-97552191D01*
X157859597Y-97504555D01*
X157859500Y-97499607D01*
X157859500Y-89613165D01*
X157861705Y-89592447D01*
X157861882Y-89588689D01*
X157864073Y-89578513D01*
X157860373Y-89547251D01*
X157859989Y-89540734D01*
X157859928Y-89540739D01*
X157859500Y-89535560D01*
X157859500Y-89530360D01*
X157858646Y-89525227D01*
X157856091Y-89509877D01*
X157855254Y-89504000D01*
X157850457Y-89463472D01*
X157849233Y-89453128D01*
X157845272Y-89444880D01*
X157843770Y-89435854D01*
X157819431Y-89390746D01*
X157816753Y-89385488D01*
X157798011Y-89346456D01*
X157798009Y-89346452D01*
X157794579Y-89339310D01*
X157789172Y-89332878D01*
X157787236Y-89330942D01*
X157787058Y-89330748D01*
X157783815Y-89324737D01*
X157748810Y-89292379D01*
X157745244Y-89288950D01*
X157254973Y-88798679D01*
X157220947Y-88736367D01*
X157219062Y-88693794D01*
X157225100Y-88646000D01*
X157211737Y-88540216D01*
X157205375Y-88489854D01*
X157205374Y-88489851D01*
X157204381Y-88481989D01*
X157201464Y-88474621D01*
X157146442Y-88335652D01*
X157146441Y-88335650D01*
X157143524Y-88328283D01*
X157046355Y-88194541D01*
X157040247Y-88189488D01*
X156925087Y-88094219D01*
X156925083Y-88094216D01*
X156918978Y-88089166D01*
X156769397Y-88018778D01*
X156761614Y-88017293D01*
X156761613Y-88017293D01*
X156614796Y-87989286D01*
X156614794Y-87989286D01*
X156607010Y-87987801D01*
X156524516Y-87992992D01*
X156449933Y-87997684D01*
X156449931Y-87997684D01*
X156442022Y-87998182D01*
X156434486Y-88000631D01*
X156434484Y-88000631D01*
X156292341Y-88046816D01*
X156292338Y-88046817D01*
X156284799Y-88049267D01*
X156145219Y-88137847D01*
X156139792Y-88143626D01*
X156139791Y-88143627D01*
X156085956Y-88200955D01*
X156032053Y-88258356D01*
X155952412Y-88403222D01*
X155911300Y-88563343D01*
X155911300Y-88728657D01*
X155952412Y-88888778D01*
X156032053Y-89033644D01*
X156037477Y-89039420D01*
X156132727Y-89140850D01*
X156145219Y-89154153D01*
X156284799Y-89242733D01*
X156292338Y-89245183D01*
X156292341Y-89245184D01*
X156434484Y-89291369D01*
X156434486Y-89291369D01*
X156442022Y-89293818D01*
X156449931Y-89294316D01*
X156449933Y-89294316D01*
X156524516Y-89299009D01*
X156607010Y-89304199D01*
X156614797Y-89302714D01*
X156622709Y-89302216D01*
X156622899Y-89305241D01*
X156679443Y-89310767D01*
X156721448Y-89338542D01*
X157063595Y-89680689D01*
X157097621Y-89743001D01*
X157100500Y-89769784D01*
X157100500Y-97294616D01*
X157080498Y-97362737D01*
X157063595Y-97383711D01*
X154994595Y-99452711D01*
X154932283Y-99486737D01*
X154861468Y-99481672D01*
X154804632Y-99439125D01*
X154779821Y-99372605D01*
X154779500Y-99363616D01*
X154779500Y-97861565D01*
X154781705Y-97840847D01*
X154781882Y-97837089D01*
X154784073Y-97826913D01*
X154780373Y-97795651D01*
X154779989Y-97789134D01*
X154779928Y-97789139D01*
X154779500Y-97783960D01*
X154779500Y-97778760D01*
X154778646Y-97773627D01*
X154776091Y-97758277D01*
X154775254Y-97752400D01*
X154770457Y-97711872D01*
X154769233Y-97701528D01*
X154765272Y-97693280D01*
X154763770Y-97684254D01*
X154739431Y-97639146D01*
X154736753Y-97633888D01*
X154718011Y-97594856D01*
X154718009Y-97594852D01*
X154714579Y-97587710D01*
X154709172Y-97581278D01*
X154707236Y-97579342D01*
X154707058Y-97579148D01*
X154703815Y-97573137D01*
X154691481Y-97561735D01*
X154668811Y-97540780D01*
X154665244Y-97537350D01*
X153061255Y-95933360D01*
X153048178Y-95917168D01*
X153045637Y-95914375D01*
X153039988Y-95905627D01*
X153015269Y-95886140D01*
X153010384Y-95881798D01*
X153010344Y-95881845D01*
X153006387Y-95878492D01*
X153002706Y-95874811D01*
X152985794Y-95862725D01*
X152981048Y-95859162D01*
X152949012Y-95833907D01*
X152940834Y-95827460D01*
X152932203Y-95824429D01*
X152924757Y-95819108D01*
X152914779Y-95816124D01*
X152914777Y-95816123D01*
X152875665Y-95804426D01*
X152870018Y-95802591D01*
X152829186Y-95788251D01*
X152829183Y-95788250D01*
X152821707Y-95785625D01*
X152813335Y-95784900D01*
X152810626Y-95784900D01*
X152810333Y-95784887D01*
X152803791Y-95782931D01*
X152778421Y-95783928D01*
X152756155Y-95784803D01*
X152751207Y-95784900D01*
X150762863Y-95784900D01*
X150694742Y-95764898D01*
X150648249Y-95711242D01*
X150637184Y-95649913D01*
X150638000Y-95638502D01*
X150638000Y-95015115D01*
X150633525Y-94999876D01*
X150632135Y-94998671D01*
X150624452Y-94997000D01*
X149097000Y-94997000D01*
X149028879Y-94976998D01*
X148982386Y-94923342D01*
X148971000Y-94871000D01*
X148971000Y-93348115D01*
X148969659Y-93343548D01*
X149479000Y-93343548D01*
X149479000Y-94470885D01*
X149483475Y-94486124D01*
X149484865Y-94487329D01*
X149492548Y-94489000D01*
X150619885Y-94489000D01*
X150635124Y-94484525D01*
X150636329Y-94483135D01*
X150638000Y-94475452D01*
X150638000Y-93845257D01*
X150637839Y-93840750D01*
X150633260Y-93776731D01*
X150630874Y-93763509D01*
X150594181Y-93638542D01*
X150586767Y-93622308D01*
X150517574Y-93514640D01*
X150505888Y-93501153D01*
X150409160Y-93417338D01*
X150394152Y-93407693D01*
X150277725Y-93354523D01*
X150260612Y-93349498D01*
X150129446Y-93330639D01*
X150120505Y-93330000D01*
X149497115Y-93330000D01*
X149481876Y-93334475D01*
X149480671Y-93335865D01*
X149479000Y-93343548D01*
X148969659Y-93343548D01*
X148966525Y-93332876D01*
X148965135Y-93331671D01*
X148957452Y-93330000D01*
X148327257Y-93330000D01*
X148322750Y-93330161D01*
X148258731Y-93334740D01*
X148245509Y-93337126D01*
X148120542Y-93373819D01*
X148104308Y-93381233D01*
X147996640Y-93450426D01*
X147983153Y-93462112D01*
X147899338Y-93558840D01*
X147889693Y-93573848D01*
X147836523Y-93690275D01*
X147831498Y-93707388D01*
X147812639Y-93838554D01*
X147812000Y-93847495D01*
X147812000Y-93943132D01*
X147791998Y-94011253D01*
X147738342Y-94057746D01*
X147668068Y-94067850D01*
X147603488Y-94038356D01*
X147585042Y-94018521D01*
X147550129Y-93971767D01*
X147550128Y-93971766D01*
X147546676Y-93967143D01*
X147409945Y-93840750D01*
X147395099Y-93827026D01*
X147395096Y-93827024D01*
X147390859Y-93823107D01*
X147211402Y-93709878D01*
X147014316Y-93631249D01*
X146806201Y-93589852D01*
X146800427Y-93589776D01*
X146800423Y-93589776D01*
X146691966Y-93588356D01*
X146594027Y-93587074D01*
X146588330Y-93588053D01*
X146588329Y-93588053D01*
X146578302Y-93589776D01*
X146384899Y-93623009D01*
X146185822Y-93696452D01*
X146003463Y-93804945D01*
X145843928Y-93944853D01*
X145840361Y-93949378D01*
X145840356Y-93949383D01*
X145716135Y-94106957D01*
X145712561Y-94111491D01*
X145613762Y-94299279D01*
X145600956Y-94340520D01*
X145554852Y-94489000D01*
X145550838Y-94501926D01*
X145525897Y-94712648D01*
X145539775Y-94924386D01*
X145592007Y-95130049D01*
X145680844Y-95322750D01*
X145803309Y-95496035D01*
X145807443Y-95500062D01*
X145877846Y-95568646D01*
X145912683Y-95630508D01*
X145908546Y-95701384D01*
X145866747Y-95758771D01*
X145800557Y-95784451D01*
X145789924Y-95784900D01*
X144633784Y-95784900D01*
X144565663Y-95764898D01*
X144544689Y-95747995D01*
X142901405Y-94104710D01*
X142867379Y-94042398D01*
X142864500Y-94015615D01*
X142864500Y-93041515D01*
X142884502Y-92973394D01*
X142910185Y-92944430D01*
X142959647Y-92903512D01*
X142965755Y-92898459D01*
X143062924Y-92764717D01*
X143079972Y-92721661D01*
X143120864Y-92618379D01*
X143120864Y-92618377D01*
X143123781Y-92611011D01*
X143144500Y-92447000D01*
X143123781Y-92282989D01*
X143062924Y-92129283D01*
X142965755Y-91995541D01*
X142959647Y-91990488D01*
X142844487Y-91895219D01*
X142844483Y-91895216D01*
X142838378Y-91890166D01*
X142688797Y-91819778D01*
X142681014Y-91818293D01*
X142681013Y-91818293D01*
X142534196Y-91790286D01*
X142534194Y-91790286D01*
X142526410Y-91788801D01*
X142443916Y-91793991D01*
X142369333Y-91798684D01*
X142369331Y-91798684D01*
X142361422Y-91799182D01*
X142276435Y-91826796D01*
X142205469Y-91828824D01*
X142144671Y-91792161D01*
X142113346Y-91728449D01*
X142111500Y-91706963D01*
X142111500Y-89206764D01*
X142113705Y-89186046D01*
X142113882Y-89182288D01*
X142116073Y-89172112D01*
X142112373Y-89140850D01*
X142111989Y-89134334D01*
X142111928Y-89134339D01*
X142111500Y-89129159D01*
X142111500Y-89123960D01*
X142108087Y-89103455D01*
X142107253Y-89097595D01*
X142102457Y-89057072D01*
X142101233Y-89046728D01*
X142097272Y-89038480D01*
X142095770Y-89029454D01*
X142071431Y-88984346D01*
X142068753Y-88979088D01*
X142050011Y-88940056D01*
X142050009Y-88940052D01*
X142046579Y-88932910D01*
X142041172Y-88926478D01*
X142039236Y-88924542D01*
X142039058Y-88924348D01*
X142035815Y-88918337D01*
X142000810Y-88885979D01*
X141997244Y-88882550D01*
X141151373Y-88036679D01*
X141117347Y-87974367D01*
X141115462Y-87931794D01*
X141121500Y-87884000D01*
X141100781Y-87719989D01*
X141039924Y-87566283D01*
X140942755Y-87432541D01*
X140936647Y-87427488D01*
X140821487Y-87332219D01*
X140821483Y-87332216D01*
X140815378Y-87327166D01*
X140665797Y-87256778D01*
X140658014Y-87255293D01*
X140658013Y-87255293D01*
X140511196Y-87227286D01*
X140511194Y-87227286D01*
X140503410Y-87225801D01*
X140420916Y-87230991D01*
X140346333Y-87235684D01*
X140346331Y-87235684D01*
X140338422Y-87236182D01*
X140330886Y-87238631D01*
X140330884Y-87238631D01*
X140188741Y-87284816D01*
X140188738Y-87284817D01*
X140181199Y-87287267D01*
X140041619Y-87375847D01*
X140036192Y-87381626D01*
X140036191Y-87381627D01*
X139982356Y-87438955D01*
X139928453Y-87496356D01*
X139848812Y-87641222D01*
X139807700Y-87801343D01*
X139807700Y-87949415D01*
X139787698Y-88017536D01*
X139770795Y-88038510D01*
X139418157Y-88391148D01*
X139401969Y-88404222D01*
X139399178Y-88406761D01*
X139390427Y-88412412D01*
X139383980Y-88420590D01*
X139383979Y-88420591D01*
X139370940Y-88437131D01*
X139366598Y-88442016D01*
X139366645Y-88442056D01*
X139363292Y-88446013D01*
X139359611Y-88449694D01*
X139356587Y-88453926D01*
X139347526Y-88466605D01*
X139343962Y-88471351D01*
X139312260Y-88511566D01*
X139309229Y-88520197D01*
X139303908Y-88527643D01*
X139300924Y-88537621D01*
X139300923Y-88537623D01*
X139289226Y-88576735D01*
X139287391Y-88582382D01*
X139280460Y-88602119D01*
X139270425Y-88630693D01*
X139269700Y-88639065D01*
X139269700Y-88641774D01*
X139269687Y-88642067D01*
X139267731Y-88648609D01*
X139268140Y-88659016D01*
X139269603Y-88696245D01*
X139269700Y-88701193D01*
X139269700Y-90168035D01*
X139267495Y-90188753D01*
X139267318Y-90192511D01*
X139265127Y-90202687D01*
X139266351Y-90213026D01*
X139268827Y-90233949D01*
X139269211Y-90240466D01*
X139269272Y-90240461D01*
X139269700Y-90245640D01*
X139269700Y-90250840D01*
X139270554Y-90255968D01*
X139270554Y-90255973D01*
X139273109Y-90271323D01*
X139273946Y-90277200D01*
X139279967Y-90328072D01*
X139283928Y-90336320D01*
X139285430Y-90345346D01*
X139309769Y-90390454D01*
X139312447Y-90395712D01*
X139331189Y-90434744D01*
X139331191Y-90434748D01*
X139334621Y-90441890D01*
X139340028Y-90448322D01*
X139341966Y-90450260D01*
X139342142Y-90450451D01*
X139345385Y-90456463D01*
X139353033Y-90463532D01*
X139353037Y-90463538D01*
X139380402Y-90488833D01*
X139383969Y-90492263D01*
X140045595Y-91153889D01*
X140079621Y-91216201D01*
X140082500Y-91242984D01*
X140082500Y-96183616D01*
X140062498Y-96251737D01*
X140045595Y-96272711D01*
X138911218Y-97407087D01*
X137778759Y-98539546D01*
X137762567Y-98552623D01*
X137759774Y-98555164D01*
X137751026Y-98560813D01*
X137744579Y-98568991D01*
X137744578Y-98568992D01*
X137731539Y-98585532D01*
X137727197Y-98590417D01*
X137727244Y-98590457D01*
X137723891Y-98594414D01*
X137720210Y-98598095D01*
X137708125Y-98615006D01*
X137704561Y-98619752D01*
X137672859Y-98659967D01*
X137669828Y-98668598D01*
X137664507Y-98676044D01*
X137661523Y-98686022D01*
X137661522Y-98686024D01*
X137649825Y-98725136D01*
X137647992Y-98730777D01*
X137631024Y-98779094D01*
X137630299Y-98787466D01*
X137630299Y-98790175D01*
X137630286Y-98790468D01*
X137628330Y-98797010D01*
X137628739Y-98807417D01*
X137630202Y-98844646D01*
X137630299Y-98849594D01*
X137630299Y-99552234D01*
X137628094Y-99572952D01*
X137627917Y-99576710D01*
X137625726Y-99586886D01*
X137258119Y-99586886D01*
X136970661Y-98849594D01*
X136786930Y-98378348D01*
X136782448Y-98364556D01*
X136772479Y-98326554D01*
X136577699Y-97584101D01*
X136442991Y-97070623D01*
X136440124Y-97056402D01*
X136251640Y-95732039D01*
X136250426Y-95717584D01*
X136229503Y-94918618D01*
X136215407Y-94380316D01*
X136215863Y-94365819D01*
X136274595Y-93707738D01*
X136334778Y-93033411D01*
X136336896Y-93019064D01*
X136363201Y-92892045D01*
X136608170Y-91709134D01*
X136611924Y-91695122D01*
X137031956Y-90425063D01*
X137037296Y-90411575D01*
X137073561Y-90333450D01*
X137441525Y-89540739D01*
X137600523Y-89198208D01*
X137607378Y-89185424D01*
X138306333Y-88044831D01*
X138314612Y-88032919D01*
X139140028Y-86980229D01*
X139149621Y-86969348D01*
X140090565Y-86018497D01*
X140101345Y-86008791D01*
X141145341Y-85172392D01*
X141157166Y-85163989D01*
X142290363Y-84453137D01*
X142303075Y-84446148D01*
X143510484Y-83870244D01*
X143523914Y-83864763D01*
X144482802Y-83536461D01*
X144789510Y-83431451D01*
X144803476Y-83427552D01*
X146110499Y-83142576D01*
X146124821Y-83140307D01*
X147455920Y-83007446D01*
X147470407Y-83006839D01*
X148170891Y-83017843D01*
G37*
%TD.AperFunction*%
%TD*%
M02*
